<svg width="400" height="400" viewBox="0 0 400 400" fill="none" xmlns="http://www.w3.org/2000/svg">
<g filter="url(#filter0_f_2_54)">
<circle cx="155.62" cy="166.62" r="76.6203" fill="#FFC701" fill-opacity="0.5"/>
</g>
<circle cx="155.62" cy="169.132" r="73.1083" fill="url(#paint0_linear_2_54)" stroke="url(#paint1_linear_2_54)" stroke-width="2"/>
<mask id="mask0_2_54" style="mask-type:alpha" maskUnits="userSpaceOnUse" x="81" y="136" width="149" height="108">
<path d="M229.729 169.133C229.729 210.061 196.549 243.241 155.62 243.241C114.691 243.241 81.512 210.061 81.512 169.133C81.512 128.204 109.039 137.731 149.968 137.731C190.897 137.731 229.729 128.204 229.729 169.133Z" fill="url(#paint2_linear_2_54)"/>
</mask>
<g mask="url(#mask0_2_54)">
<g filter="url(#filter1_f_2_54)">
<path fill-rule="evenodd" clip-rule="evenodd" d="M268.667 304.788C268.667 334.618 244.486 358.799 214.656 358.799C214.446 358.799 214.237 358.798 214.028 358.796V358.799H24.3611L24.3635 358.796C24.1536 358.799 23.9433 358.8 23.7328 358.8C-6.09665 358.8 -30.2782 334.618 -30.2782 304.789C-30.2782 274.959 -6.09665 250.778 23.7328 250.778C49.445 250.778 70.9607 268.744 76.4105 292.808L94.7012 269.618L151.853 250.777H214.028V250.781C214.237 250.778 214.446 250.777 214.656 250.777C244.486 250.777 268.667 274.959 268.667 304.788Z" fill="#E18700"/>
</g>
</g>
<g filter="url(#filter2_bd_2_54)">
<mask id="path-5-inside-1_2_54" fill="white">
<path fill-rule="evenodd" clip-rule="evenodd" d="M280.678 308.997C280.829 308.999 280.981 309 281.133 309C302.69 309 320.166 291.524 320.166 269.967C320.166 248.409 302.69 230.933 281.133 230.933C280.981 230.933 280.829 230.934 280.678 230.936V230.933H270.595C270.959 228.262 271.147 225.535 271.147 222.763C271.147 189.675 244.324 162.852 211.236 162.852C178.147 162.852 151.324 189.675 151.324 222.763C151.324 225.885 151.563 228.952 152.023 231.945C149.174 231.283 146.205 230.933 143.155 230.933C121.597 230.933 104.121 248.409 104.121 269.967C104.121 291.524 121.597 309 143.155 309C143.307 309 143.458 308.999 143.61 308.997L143.608 309H280.678V308.997Z"/>
</mask>
<path fill-rule="evenodd" clip-rule="evenodd" d="M280.678 308.997C280.829 308.999 280.981 309 281.133 309C302.69 309 320.166 291.524 320.166 269.967C320.166 248.409 302.69 230.933 281.133 230.933C280.981 230.933 280.829 230.934 280.678 230.936V230.933H270.595C270.959 228.262 271.147 225.535 271.147 222.763C271.147 189.675 244.324 162.852 211.236 162.852C178.147 162.852 151.324 189.675 151.324 222.763C151.324 225.885 151.563 228.952 152.023 231.945C149.174 231.283 146.205 230.933 143.155 230.933C121.597 230.933 104.121 248.409 104.121 269.967C104.121 291.524 121.597 309 143.155 309C143.307 309 143.458 308.999 143.61 308.997L143.608 309H280.678V308.997Z" fill="url(#paint3_linear_2_54)" shape-rendering="crispEdges"/>
<path d="M280.678 308.997L280.701 306.998C280.166 306.991 279.652 307.199 279.272 307.575C278.892 307.951 278.678 308.463 278.678 308.997H280.678ZM280.678 230.936H278.678C278.678 231.47 278.892 231.983 279.272 232.358C279.652 232.734 280.166 232.942 280.701 232.936L280.678 230.936ZM280.678 230.933H282.678C282.678 229.829 281.782 228.933 280.678 228.933V230.933ZM270.595 230.933L268.613 230.663C268.535 231.236 268.708 231.814 269.088 232.249C269.468 232.684 270.017 232.933 270.595 232.933V230.933ZM152.023 231.945L151.571 233.894C152.217 234.044 152.896 233.863 153.383 233.412C153.87 232.961 154.101 232.297 154 231.641L152.023 231.945ZM143.61 308.997L145.179 310.237C145.657 309.632 145.745 308.807 145.405 308.115C145.065 307.424 144.358 306.989 143.587 306.998L143.61 308.997ZM143.608 309L142.038 307.76C141.563 308.362 141.474 309.182 141.808 309.872C142.142 310.562 142.841 311 143.608 311V309ZM280.678 309V311C281.782 311 282.678 310.105 282.678 309H280.678ZM280.655 310.997C280.814 310.999 280.973 311 281.133 311V307C280.988 307 280.844 306.999 280.701 306.998L280.655 310.997ZM281.133 311C303.795 311 322.166 292.629 322.166 269.967H318.166C318.166 290.42 301.586 307 281.133 307V311ZM322.166 269.967C322.166 247.305 303.795 228.933 281.133 228.933V232.933C301.586 232.933 318.166 249.514 318.166 269.967H322.166ZM281.133 228.933C280.973 228.933 280.814 228.934 280.655 228.936L280.701 232.936C280.844 232.934 280.988 232.933 281.133 232.933V228.933ZM278.678 230.933V230.936H282.678V230.933H278.678ZM270.595 232.933H280.678V228.933H270.595V232.933ZM272.576 231.204C272.953 228.443 273.147 225.625 273.147 222.763H269.147C269.147 225.444 268.965 228.081 268.613 230.663L272.576 231.204ZM273.147 222.763C273.147 188.571 245.428 160.852 211.236 160.852V164.852C243.219 164.852 269.147 190.78 269.147 222.763H273.147ZM211.236 160.852C177.043 160.852 149.324 188.571 149.324 222.763H153.324C153.324 190.78 179.252 164.852 211.236 164.852V160.852ZM149.324 222.763C149.324 225.988 149.571 229.156 150.047 232.249L154 231.641C153.555 228.748 153.324 225.783 153.324 222.763H149.324ZM152.476 229.997C149.479 229.301 146.359 228.933 143.155 228.933V232.933C146.052 232.933 148.869 233.266 151.571 233.894L152.476 229.997ZM143.155 228.933C120.493 228.933 102.121 247.305 102.121 269.967H106.121C106.121 249.514 122.702 232.933 143.155 232.933V228.933ZM102.121 269.967C102.121 292.629 120.493 311 143.155 311V307C122.702 307 106.121 290.42 106.121 269.967H102.121ZM143.155 311C143.314 311 143.473 310.999 143.633 310.997L143.587 306.998C143.443 306.999 143.299 307 143.155 307V311ZM145.177 310.24L145.179 310.237L142.04 307.758L142.038 307.76L145.177 310.24ZM280.678 307H143.608V311H280.678V307ZM278.678 308.997V309H282.678V308.997H278.678Z" fill="url(#paint4_linear_2_54)" mask="url(#path-5-inside-1_2_54)"/>
</g>
<defs>
<filter id="filter0_f_2_54" x="35" y="46" width="241.241" height="241.241" filterUnits="userSpaceOnUse" color-interpolation-filters="sRGB">
<feFlood flood-opacity="0" result="BackgroundImageFix"/>
<feBlend mode="normal" in="SourceGraphic" in2="BackgroundImageFix" result="shape"/>
<feGaussianBlur stdDeviation="22" result="effect1_foregroundBlur_2_54"/>
</filter>
<filter id="filter1_f_2_54" x="-44.2782" y="236.777" width="326.945" height="136.023" filterUnits="userSpaceOnUse" color-interpolation-filters="sRGB">
<feFlood flood-opacity="0" result="BackgroundImageFix"/>
<feBlend mode="normal" in="SourceGraphic" in2="BackgroundImageFix" result="shape"/>
<feGaussianBlur stdDeviation="7" result="effect1_foregroundBlur_2_54"/>
</filter>
<filter id="filter2_bd_2_54" x="33.1213" y="127.852" width="316.045" height="246.148" filterUnits="userSpaceOnUse" color-interpolation-filters="sRGB">
<feFlood flood-opacity="0" result="BackgroundImageFix"/>
<feGaussianBlur in="BackgroundImageFix" stdDeviation="7"/>
<feComposite in2="SourceAlpha" operator="in" result="effect1_backgroundBlur_2_54"/>
<feColorMatrix in="SourceAlpha" type="matrix" values="0 0 0 0 0 0 0 0 0 0 0 0 0 0 0 0 0 0 127 0" result="hardAlpha"/>
<feOffset dx="-21" dy="15"/>
<feGaussianBlur stdDeviation="25"/>
<feComposite in2="hardAlpha" operator="out"/>
<feColorMatrix type="matrix" values="0 0 0 0 0.113438 0 0 0 0 0.148981 0 0 0 0 0.275 0 0 0 0.25 0"/>
<feBlend mode="normal" in2="effect1_backgroundBlur_2_54" result="effect2_dropShadow_2_54"/>
<feBlend mode="normal" in="SourceGraphic" in2="effect2_dropShadow_2_54" result="shape"/>
</filter>
<linearGradient id="paint0_linear_2_54" x1="155.62" y1="95.0241" x2="155.62" y2="243.241" gradientUnits="userSpaceOnUse">
<stop stop-color="#FFE600"/>
<stop offset="1" stop-color="#FF7A00"/>
</linearGradient>
<linearGradient id="paint1_linear_2_54" x1="155.62" y1="95.0241" x2="155.62" y2="243.241" gradientUnits="userSpaceOnUse">
<stop stop-color="white"/>
<stop offset="1" stop-color="white" stop-opacity="0"/>
</linearGradient>
<linearGradient id="paint2_linear_2_54" x1="155.62" y1="95.0243" x2="155.62" y2="243.241" gradientUnits="userSpaceOnUse">
<stop stop-color="#FFD600"/>
<stop offset="1" stop-color="#FF7A00"/>
</linearGradient>
<linearGradient id="paint3_linear_2_54" x1="222.192" y1="167.248" x2="222.192" y2="325.514" gradientUnits="userSpaceOnUse">
<stop stop-color="white"/>
<stop offset="1" stop-color="white" stop-opacity="0"/>
</linearGradient>
<linearGradient id="paint4_linear_2_54" x1="212.144" y1="162.852" x2="212.144" y2="309" gradientUnits="userSpaceOnUse">
<stop stop-color="white"/>
<stop offset="1" stop-color="white" stop-opacity="0"/>
</linearGradient>
</defs>
</svg>
