<svg width="400" height="400" viewBox="0 0 400 400" fill="none" xmlns="http://www.w3.org/2000/svg">
<g clip-path="url(#clip0_2_322)">
<g filter="url(#filter0_bdd_2_322)">
<mask id="path-1-inside-1_2_322" fill="white">
<path fill-rule="evenodd" clip-rule="evenodd" d="M240.339 96.4558C243.792 95.9443 245.853 100.018 243.943 102.94C231.004 122.738 228.781 148.736 240.373 171.271C255.668 201.007 289.856 214.682 320.736 205.177C324.075 204.149 327.421 207.261 325.97 210.44C318.671 226.424 306.149 240.162 289.311 248.823C249.481 269.311 200.583 253.63 180.096 213.8C159.608 173.97 175.289 125.073 215.119 104.585C223.254 100.401 231.767 97.7251 240.339 96.4558Z"/>
</mask>
<path fill-rule="evenodd" clip-rule="evenodd" d="M240.339 96.4558C243.792 95.9443 245.853 100.018 243.943 102.94C231.004 122.738 228.781 148.736 240.373 171.271C255.668 201.007 289.856 214.682 320.736 205.177C324.075 204.149 327.421 207.261 325.97 210.44C318.671 226.424 306.149 240.162 289.311 248.823C249.481 269.311 200.583 253.63 180.096 213.8C159.608 173.97 175.289 125.073 215.119 104.585C223.254 100.401 231.767 97.7251 240.339 96.4558Z" fill="url(#paint0_linear_2_322)"/>
<path d="M240.339 96.4558L240.632 98.4342L240.339 96.4558ZM242.151 170.357C230.902 148.487 233.056 123.255 245.617 104.035L242.269 101.846C228.953 122.222 226.66 148.986 238.594 172.186L242.151 170.357ZM320.148 203.265C290.178 212.49 256.995 199.215 242.151 170.357L238.594 172.186C254.34 202.798 289.534 216.873 321.324 207.088L320.148 203.265ZM324.15 209.609C317.032 225.199 304.821 238.596 288.396 247.045L290.226 250.602C307.477 241.728 320.311 227.648 327.789 211.27L324.15 209.609ZM288.396 247.045C249.548 267.027 201.857 251.733 181.874 212.885L178.317 214.715C199.31 255.527 249.413 271.595 290.226 250.602L288.396 247.045ZM181.874 212.885C161.892 174.037 177.186 126.346 216.034 106.364L214.204 102.807C173.392 123.799 157.325 173.902 178.317 214.715L181.874 212.885ZM216.034 106.364C223.971 102.281 232.274 99.6719 240.632 98.4342L240.046 94.4773C231.26 95.7784 222.537 98.5207 214.204 102.807L216.034 106.364ZM321.324 207.088C322.247 206.804 323.168 207.091 323.752 207.662C324.306 208.203 324.478 208.89 324.15 209.609L327.789 211.27C328.912 208.811 328.137 206.353 326.546 204.8C324.986 203.276 322.564 202.521 320.148 203.265L321.324 207.088ZM245.617 104.035C246.999 101.92 246.945 99.3854 245.915 97.4648C244.864 95.5068 242.719 94.0815 240.046 94.4773L240.632 98.4342C241.412 98.3186 242.024 98.6745 242.39 99.356C242.776 100.075 242.797 101.038 242.269 101.846L245.617 104.035Z" fill="url(#paint1_linear_2_322)" mask="url(#path-1-inside-1_2_322)"/>
</g>
<g filter="url(#filter1_bd_2_322)">
<mask id="path-3-inside-2_2_322" fill="white">
<path fill-rule="evenodd" clip-rule="evenodd" d="M240.556 318.617C240.708 318.619 240.859 318.62 241.011 318.62C262.569 318.62 280.045 301.144 280.045 279.587C280.045 258.029 262.569 240.554 241.011 240.554C240.859 240.554 240.708 240.554 240.556 240.556V240.554H230.473C230.838 237.882 231.026 235.155 231.026 232.383C231.026 199.295 204.202 172.472 171.114 172.472C138.026 172.472 111.203 199.295 111.203 232.383C111.203 235.506 111.442 238.572 111.902 241.566C109.053 240.904 106.084 240.554 103.033 240.554C81.4758 240.554 64 258.029 64 279.587C64 301.144 81.4758 318.62 103.033 318.62C103.185 318.62 103.337 318.619 103.488 318.617L103.486 318.62H240.556V318.617Z"/>
</mask>
<path fill-rule="evenodd" clip-rule="evenodd" d="M240.556 318.617C240.708 318.619 240.859 318.62 241.011 318.62C262.569 318.62 280.045 301.144 280.045 279.587C280.045 258.029 262.569 240.554 241.011 240.554C240.859 240.554 240.708 240.554 240.556 240.556V240.554H230.473C230.838 237.882 231.026 235.155 231.026 232.383C231.026 199.295 204.202 172.472 171.114 172.472C138.026 172.472 111.203 199.295 111.203 232.383C111.203 235.506 111.442 238.572 111.902 241.566C109.053 240.904 106.084 240.554 103.033 240.554C81.4758 240.554 64 258.029 64 279.587C64 301.144 81.4758 318.62 103.033 318.62C103.185 318.62 103.337 318.619 103.488 318.617L103.486 318.62H240.556V318.617Z" fill="url(#paint2_linear_2_322)" shape-rendering="crispEdges"/>
<path d="M240.556 318.617L240.579 316.618C240.045 316.612 239.53 316.82 239.15 317.195C238.77 317.571 238.556 318.083 238.556 318.617H240.556ZM240.556 240.556H238.556C238.556 241.091 238.77 241.603 239.15 241.978C239.53 242.354 240.045 242.562 240.579 242.556L240.556 240.556ZM240.556 240.554H242.556C242.556 239.449 241.661 238.554 240.556 238.554V240.554ZM230.473 240.554L228.492 240.283C228.414 240.856 228.587 241.434 228.967 241.869C229.346 242.304 229.896 242.554 230.473 242.554V240.554ZM111.902 241.566L111.449 243.514C112.096 243.664 112.775 243.483 113.262 243.032C113.749 242.581 113.98 241.918 113.879 241.261L111.902 241.566ZM103.488 318.617L105.058 319.857C105.536 319.252 105.623 318.427 105.283 317.735C104.943 317.044 104.236 316.609 103.466 316.618L103.488 318.617ZM103.486 318.62L101.917 317.381C101.442 317.982 101.352 318.802 101.687 319.492C102.021 320.182 102.72 320.62 103.486 320.62V318.62ZM240.556 318.62V320.62C241.661 320.62 242.556 319.725 242.556 318.62H240.556ZM240.534 320.617C240.693 320.619 240.852 320.62 241.011 320.62V316.62C240.867 316.62 240.723 316.619 240.579 316.618L240.534 320.617ZM241.011 320.62C263.673 320.62 282.045 302.249 282.045 279.587H278.045C278.045 300.04 261.464 316.62 241.011 316.62V320.62ZM282.045 279.587C282.045 256.925 263.673 238.554 241.011 238.554V242.554C261.464 242.554 278.045 259.134 278.045 279.587H282.045ZM241.011 238.554C240.852 238.554 240.693 238.554 240.534 238.556L240.579 242.556C240.723 242.554 240.867 242.554 241.011 242.554V238.554ZM238.556 240.554V240.556H242.556V240.554H238.556ZM230.473 242.554H240.556V238.554H230.473V242.554ZM232.455 240.824C232.831 238.063 233.026 235.245 233.026 232.383H229.026C229.026 235.064 228.844 237.701 228.492 240.283L232.455 240.824ZM233.026 232.383C233.026 198.191 205.307 170.472 171.114 170.472V174.472C203.098 174.472 229.026 200.4 229.026 232.383H233.026ZM171.114 170.472C136.922 170.472 109.203 198.191 109.203 232.383H113.203C113.203 200.4 139.131 174.472 171.114 174.472V170.472ZM109.203 232.383C109.203 235.608 109.449 238.776 109.925 241.87L113.879 241.261C113.434 238.368 113.203 235.404 113.203 232.383H109.203ZM112.355 239.617C109.358 238.921 106.237 238.554 103.033 238.554V242.554C105.93 242.554 108.748 242.886 111.449 243.514L112.355 239.617ZM103.033 238.554C80.3712 238.554 62 256.925 62 279.587H66C66 259.134 82.5804 242.554 103.033 242.554V238.554ZM62 279.587C62 302.249 80.3712 320.62 103.033 320.62V316.62C82.5804 316.62 66 300.04 66 279.587H62ZM103.033 320.62C103.193 320.62 103.352 320.619 103.511 320.617L103.466 316.618C103.322 316.619 103.178 316.62 103.033 316.62V320.62ZM105.056 319.86L105.058 319.857L101.919 317.378L101.917 317.381L105.056 319.86ZM240.556 316.62H103.486V320.62H240.556V316.62ZM238.556 318.617V318.62H242.556V318.617H238.556Z" fill="url(#paint3_linear_2_322)" mask="url(#path-3-inside-2_2_322)"/>
</g>
</g>
<defs>
<filter id="filter0_bdd_2_322" x="100.098" y="58.4119" width="264.22" height="264.41" filterUnits="userSpaceOnUse" color-interpolation-filters="sRGB">
<feFlood flood-opacity="0" result="BackgroundImageFix"/>
<feGaussianBlur in="BackgroundImageFix" stdDeviation="7"/>
<feComposite in2="SourceAlpha" operator="in" result="effect1_backgroundBlur_2_322"/>
<feColorMatrix in="SourceAlpha" type="matrix" values="0 0 0 0 0 0 0 0 0 0 0 0 0 0 0 0 0 0 127 0" result="hardAlpha"/>
<feOffset dx="-21" dy="15"/>
<feGaussianBlur stdDeviation="25"/>
<feComposite in2="hardAlpha" operator="out"/>
<feColorMatrix type="matrix" values="0 0 0 0 0.113438 0 0 0 0 0.148981 0 0 0 0 0.275 0 0 0 0.25 0"/>
<feBlend mode="normal" in2="effect1_backgroundBlur_2_322" result="effect2_dropShadow_2_322"/>
<feColorMatrix in="SourceAlpha" type="matrix" values="0 0 0 0 0 0 0 0 0 0 0 0 0 0 0 0 0 0 127 0" result="hardAlpha"/>
<feOffset/>
<feGaussianBlur stdDeviation="19"/>
<feComposite in2="hardAlpha" operator="out"/>
<feColorMatrix type="matrix" values="0 0 0 0 0.619608 0 0 0 0 0.423529 0 0 0 0 1 0 0 0 0.4 0"/>
<feBlend mode="normal" in2="effect2_dropShadow_2_322" result="effect3_dropShadow_2_322"/>
<feBlend mode="normal" in="SourceGraphic" in2="effect3_dropShadow_2_322" result="shape"/>
</filter>
<filter id="filter1_bd_2_322" x="-7" y="137.472" width="316.045" height="246.148" filterUnits="userSpaceOnUse" color-interpolation-filters="sRGB">
<feFlood flood-opacity="0" result="BackgroundImageFix"/>
<feGaussianBlur in="BackgroundImageFix" stdDeviation="7"/>
<feComposite in2="SourceAlpha" operator="in" result="effect1_backgroundBlur_2_322"/>
<feColorMatrix in="SourceAlpha" type="matrix" values="0 0 0 0 0 0 0 0 0 0 0 0 0 0 0 0 0 0 127 0" result="hardAlpha"/>
<feOffset dx="-21" dy="15"/>
<feGaussianBlur stdDeviation="25"/>
<feComposite in2="hardAlpha" operator="out"/>
<feColorMatrix type="matrix" values="0 0 0 0 0.113438 0 0 0 0 0.148981 0 0 0 0 0.275 0 0 0 0.25 0"/>
<feBlend mode="normal" in2="effect1_backgroundBlur_2_322" result="effect2_dropShadow_2_322"/>
<feBlend mode="normal" in="SourceGraphic" in2="effect2_dropShadow_2_322" result="shape"/>
</filter>
<linearGradient id="paint0_linear_2_322" x1="199.961" y1="113.989" x2="274.152" y2="258.227" gradientUnits="userSpaceOnUse">
<stop offset="0.0001" stop-color="#D4C0FF"/>
<stop offset="1" stop-color="#7E2FFF"/>
</linearGradient>
<linearGradient id="paint1_linear_2_322" x1="208.038" y1="34.6772" x2="254.183" y2="223.979" gradientUnits="userSpaceOnUse">
<stop stop-color="white"/>
<stop offset="1" stop-color="white" stop-opacity="0"/>
</linearGradient>
<linearGradient id="paint2_linear_2_322" x1="182.071" y1="176.868" x2="182.071" y2="335.134" gradientUnits="userSpaceOnUse">
<stop stop-color="white"/>
<stop offset="1" stop-color="white" stop-opacity="0"/>
</linearGradient>
<linearGradient id="paint3_linear_2_322" x1="172.022" y1="172.472" x2="172.022" y2="318.62" gradientUnits="userSpaceOnUse">
<stop stop-color="white"/>
<stop offset="1" stop-color="white" stop-opacity="0"/>
</linearGradient>
<clipPath id="clip0_2_322">
<rect width="400" height="400" fill="white"/>
</clipPath>
</defs>
</svg>
