<svg width="400" height="400" viewBox="0 0 400 400" fill="none" xmlns="http://www.w3.org/2000/svg">
<mask id="mask0_2_208" style="mask-type:luminance" maskUnits="userSpaceOnUse" x="10" y="10" width="380" height="380">
<path d="M390 10H10V390H390V10Z" fill="white"/>
</mask>
<g mask="url(#mask0_2_208)">
<g filter="url(#filter0_d_2_208)">
<path fill-rule="evenodd" clip-rule="evenodd" d="M170.135 217.433C170.249 217.434 170.364 217.435 170.478 217.435C186.783 217.435 200 204.218 200 187.913C200 171.609 186.783 158.392 170.478 158.392C170.364 158.392 170.249 158.392 170.135 158.394V158.392H162.508C162.784 156.371 162.926 154.309 162.926 152.212C162.926 127.187 142.639 106.9 117.613 106.9C92.5879 106.9 72.3008 127.187 72.3008 152.212C72.3008 154.574 72.4815 156.893 72.8296 159.157C70.6747 158.656 68.4292 158.392 66.1218 158.392C49.8173 158.392 36.6 171.609 36.6 187.913C36.6 204.218 49.8173 217.435 66.1218 217.435C66.2369 217.435 66.3519 217.434 66.4666 217.433L66.4651 217.435H170.135V217.433Z" fill="url(#paint0_linear_2_208)"/>
<mask id="mask1_2_208" style="mask-type:luminance" maskUnits="userSpaceOnUse" x="36" y="106" width="164" height="112">
<path fill-rule="evenodd" clip-rule="evenodd" d="M170.135 217.433C170.249 217.434 170.364 217.435 170.478 217.435C186.783 217.435 200 204.218 200 187.913C200 171.609 186.783 158.392 170.478 158.392C170.364 158.392 170.249 158.392 170.135 158.394V158.392H162.508C162.784 156.371 162.926 154.309 162.926 152.212C162.926 127.187 142.639 106.9 117.613 106.9C92.5879 106.9 72.3008 127.187 72.3008 152.212C72.3008 154.574 72.4815 156.893 72.8296 159.157C70.6747 158.656 68.4292 158.392 66.1218 158.392C49.8173 158.392 36.6 171.609 36.6 187.913C36.6 204.218 49.8173 217.435 66.1218 217.435C66.2369 217.435 66.3519 217.434 66.4666 217.433L66.4651 217.435H170.135V217.433Z" fill="url(#paint1_linear_2_208)"/>
</mask>
<g mask="url(#mask1_2_208)">
<path d="M170.135 217.433L170.157 215.533C169.649 215.528 169.16 215.725 168.799 216.083C168.438 216.439 168.235 216.925 168.235 217.433H170.135ZM170.135 158.394H168.235C168.235 158.901 168.438 159.388 168.799 159.745C169.16 160.102 169.648 160.299 170.157 160.294L170.135 158.394ZM170.135 158.392H172.035C172.035 157.342 171.185 156.492 170.135 156.492V158.392ZM162.508 158.392L160.625 158.134C160.551 158.679 160.716 159.228 161.077 159.641C161.438 160.054 161.959 160.292 162.508 160.292V158.392ZM72.8296 159.157L72.3996 161.007C73.0138 161.151 73.6589 160.979 74.1213 160.55C74.5837 160.122 74.8033 159.491 74.7075 158.868L72.8296 159.157ZM66.4666 217.433L67.9578 218.611C68.4116 218.036 68.4947 217.252 68.1717 216.595C67.8487 215.938 67.1769 215.525 66.445 215.533L66.4666 217.433ZM66.4651 217.435L64.9738 216.258C64.5226 216.829 64.4377 217.608 64.7553 218.264C65.0728 218.919 65.7369 219.335 66.4651 219.335V217.435ZM170.135 217.435V219.335C171.185 219.335 172.035 218.485 172.035 217.435H170.135ZM170.113 219.333C170.235 219.334 170.356 219.335 170.478 219.335V215.535C170.37 215.535 170.264 215.534 170.157 215.533L170.113 219.333ZM170.478 219.335C187.832 219.335 201.9 205.267 201.9 187.913H198.1C198.1 203.168 185.733 215.535 170.478 215.535V219.335ZM201.9 187.913C201.9 170.559 187.832 156.492 170.478 156.492V160.292C185.733 160.292 198.1 172.658 198.1 187.913H201.9ZM170.478 156.492C170.356 156.492 170.235 156.492 170.113 156.494L170.157 160.294C170.264 160.292 170.37 160.292 170.478 160.292V156.492ZM168.235 158.392V158.394H172.035V158.392H168.235ZM162.508 160.292H170.135V156.492H162.508V160.292ZM164.391 158.648C164.678 156.543 164.826 154.394 164.826 152.212H161.026C161.026 154.222 160.889 156.199 160.625 158.134L164.391 158.648ZM164.826 152.212C164.826 126.138 143.688 105 117.613 105V108.8C141.589 108.8 161.026 128.236 161.026 152.212H164.826ZM117.613 105C91.5386 105 70.4008 126.138 70.4008 152.212H74.2008C74.2008 128.236 93.6373 108.8 117.613 108.8V105ZM70.4008 152.212C70.4008 154.671 70.5889 157.087 70.9517 159.445L74.7075 158.868C74.3739 156.7 74.2008 154.477 74.2008 152.212H70.4008ZM73.2596 157.306C70.9647 156.773 68.5749 156.492 66.1218 156.492V160.292C68.2834 160.292 70.3846 160.54 72.3996 161.007L73.2596 157.306ZM66.1218 156.492C48.768 156.492 34.7 170.559 34.7 187.913H38.5C38.5 172.658 50.8667 160.292 66.1218 160.292V156.492ZM34.7 187.913C34.7 205.267 48.768 219.335 66.1218 219.335V215.535C50.8667 215.535 38.5 203.168 38.5 187.913H34.7ZM66.1218 219.335C66.2441 219.335 66.3663 219.334 66.4884 219.333L66.445 215.533C66.3373 215.534 66.2296 215.535 66.1218 215.535V219.335ZM67.9563 218.612L67.9578 218.611L64.9754 216.256L64.9738 216.258L67.9563 218.612ZM170.135 215.535H66.4651V219.335H170.135V215.535ZM168.235 217.433V217.435H172.035V217.433H168.235Z" fill="url(#paint2_linear_2_208)"/>
</g>
</g>
<g filter="url(#filter1_d_2_208)">
<path fill-rule="evenodd" clip-rule="evenodd" d="M259.375 293.097C259.533 293.099 259.691 293.1 259.85 293.1C282.411 293.1 300.7 274.811 300.7 252.25C300.7 229.689 282.411 211.4 259.85 211.4C259.691 211.4 259.533 211.401 259.375 211.403V211.4H248.821C249.203 208.604 249.4 205.75 249.4 202.85C249.4 168.222 221.328 140.15 186.7 140.15C152.072 140.15 124 168.222 124 202.85C124 206.117 124.25 209.326 124.731 212.459C121.749 211.767 118.643 211.4 115.45 211.4C92.8892 211.4 74.6 229.689 74.6 252.25C74.6 274.811 92.8892 293.1 115.45 293.1C115.61 293.1 115.768 293.099 115.927 293.097L115.925 293.1H259.375V293.097Z" fill="url(#paint3_linear_2_208)"/>
<mask id="mask2_2_208" style="mask-type:luminance" maskUnits="userSpaceOnUse" x="74" y="140" width="227" height="154">
<path fill-rule="evenodd" clip-rule="evenodd" d="M259.375 293.097C259.533 293.099 259.691 293.1 259.85 293.1C282.411 293.1 300.7 274.811 300.7 252.25C300.7 229.689 282.411 211.4 259.85 211.4C259.691 211.4 259.533 211.401 259.375 211.403V211.4H248.821C249.203 208.604 249.4 205.75 249.4 202.85C249.4 168.222 221.328 140.15 186.7 140.15C152.072 140.15 124 168.222 124 202.85C124 206.117 124.25 209.326 124.731 212.459C121.749 211.767 118.643 211.4 115.45 211.4C92.8892 211.4 74.6 229.689 74.6 252.25C74.6 274.811 92.8892 293.1 115.45 293.1C115.61 293.1 115.768 293.099 115.927 293.097L115.925 293.1H259.375V293.097Z" fill="url(#paint4_linear_2_208)"/>
</mask>
<g mask="url(#mask2_2_208)">
<path d="M259.375 293.097L259.397 291.197C258.889 291.191 258.4 291.389 258.039 291.746C257.678 292.103 257.475 292.59 257.475 293.097H259.375ZM259.375 211.403H257.475C257.475 211.91 257.678 212.397 258.039 212.754C258.4 213.111 258.889 213.309 259.397 213.303L259.375 211.403ZM259.375 211.4H261.275C261.275 210.35 260.425 209.5 259.375 209.5V211.4ZM248.821 211.4L246.94 211.143C246.865 211.687 247.03 212.236 247.391 212.649C247.752 213.063 248.273 213.3 248.821 213.3V211.4ZM124.732 212.459L124.302 214.31C124.916 214.452 125.561 214.281 126.024 213.853C126.486 213.423 126.706 212.794 126.61 212.17L124.732 212.459ZM115.927 293.097L117.418 294.275C117.872 293.7 117.955 292.917 117.632 292.259C117.309 291.602 116.638 291.189 115.905 291.197L115.927 293.097ZM115.925 293.1L114.434 291.922C113.982 292.494 113.898 293.273 114.215 293.928C114.532 294.584 115.196 295 115.925 295V293.1ZM259.375 293.1V295C260.425 295 261.275 294.15 261.275 293.1H259.375ZM259.353 294.997C259.518 294.999 259.684 295 259.85 295V291.2C259.699 291.2 259.548 291.199 259.397 291.197L259.353 294.997ZM259.85 295C283.46 295 302.6 275.86 302.6 252.25H298.8C298.8 273.762 281.362 291.2 259.85 291.2V295ZM302.6 252.25C302.6 228.64 283.46 209.5 259.85 209.5V213.3C281.362 213.3 298.8 230.738 298.8 252.25H302.6ZM259.85 209.5C259.685 209.5 259.518 209.501 259.353 209.503L259.397 213.303C259.548 213.301 259.699 213.3 259.85 213.3V209.5ZM257.475 211.4V211.403H261.275V211.4H257.475ZM248.821 213.3H259.375V209.5H248.821V213.3ZM250.704 211.657C251.098 208.776 251.3 205.836 251.3 202.85H247.5C247.5 205.664 247.309 208.432 246.94 211.143L250.704 211.657ZM251.3 202.85C251.3 167.173 222.377 138.25 186.7 138.25V142.05C220.279 142.05 247.5 169.271 247.5 202.85H251.3ZM186.7 138.25C151.023 138.25 122.1 167.173 122.1 202.85H125.9C125.9 169.271 153.121 142.05 186.7 142.05V138.25ZM122.1 202.85C122.1 206.215 122.357 209.52 122.853 212.748L126.61 212.17C126.142 209.133 125.9 206.02 125.9 202.85H122.1ZM125.162 210.609C122.04 209.883 118.788 209.5 115.45 209.5V213.3C118.497 213.3 121.46 213.65 124.302 214.31L125.162 210.609ZM115.45 209.5C91.8399 209.5 72.7 228.64 72.7 252.25H76.5C76.5 230.738 93.9385 213.3 115.45 213.3V209.5ZM72.7 252.25C72.7 275.86 91.8399 295 115.45 295V291.2C93.9385 291.2 76.5 273.762 76.5 252.25H72.7ZM115.45 295C115.616 295 115.783 294.999 115.949 294.997L115.905 291.197C115.754 291.199 115.602 291.2 115.45 291.2V295ZM117.416 294.278L117.418 294.275L114.436 291.919L114.434 291.922L117.416 294.278ZM259.375 291.2H115.925V295H259.375V291.2ZM257.475 293.097V293.1H261.275V293.097H257.475Z" fill="url(#paint5_linear_2_208)"/>
</g>
</g>
<g filter="url(#filter2_d_2_208)">
<path fill-rule="evenodd" clip-rule="evenodd" d="M333.535 250.683C333.649 250.684 333.764 250.685 333.878 250.685C350.183 250.685 363.4 237.468 363.4 221.163C363.4 204.859 350.183 191.642 333.878 191.642C333.764 191.642 333.649 191.642 333.535 191.644V191.642H325.908C326.184 189.621 326.326 187.559 326.326 185.462C326.326 160.437 306.039 140.15 281.013 140.15C255.988 140.15 235.701 160.437 235.701 185.462C235.701 187.824 235.882 190.143 236.229 192.407C234.075 191.906 231.829 191.642 229.522 191.642C213.217 191.642 200 204.859 200 221.163C200 237.468 213.217 250.685 229.522 250.685C229.637 250.685 229.752 250.684 229.867 250.683L229.865 250.685H333.535V250.683Z" fill="url(#paint6_linear_2_208)"/>
<mask id="mask3_2_208" style="mask-type:luminance" maskUnits="userSpaceOnUse" x="200" y="140" width="164" height="111">
<path fill-rule="evenodd" clip-rule="evenodd" d="M333.535 250.683C333.649 250.684 333.764 250.685 333.878 250.685C350.183 250.685 363.4 237.468 363.4 221.163C363.4 204.859 350.183 191.642 333.878 191.642C333.764 191.642 333.649 191.642 333.535 191.644V191.642H325.908C326.184 189.621 326.326 187.559 326.326 185.462C326.326 160.437 306.039 140.15 281.013 140.15C255.988 140.15 235.701 160.437 235.701 185.462C235.701 187.824 235.882 190.143 236.229 192.407C234.075 191.906 231.829 191.642 229.522 191.642C213.217 191.642 200 204.859 200 221.163C200 237.468 213.217 250.685 229.522 250.685C229.637 250.685 229.752 250.684 229.867 250.683L229.865 250.685H333.535V250.683Z" fill="url(#paint7_linear_2_208)"/>
</mask>
<g mask="url(#mask3_2_208)">
<path d="M333.535 250.683L333.557 248.783C333.049 248.778 332.56 248.975 332.199 249.333C331.838 249.689 331.635 250.175 331.635 250.683H333.535ZM333.535 191.644H331.635C331.635 192.151 331.838 192.638 332.199 192.995C332.56 193.352 333.048 193.549 333.557 193.544L333.535 191.644ZM333.535 191.642H335.435C335.435 190.592 334.585 189.742 333.535 189.742V191.642ZM325.908 191.642L324.025 191.384C323.951 191.929 324.117 192.478 324.477 192.891C324.838 193.304 325.359 193.542 325.908 193.542V191.642ZM236.229 192.407L235.8 194.257C236.413 194.401 237.059 194.229 237.521 193.8C237.984 193.372 238.203 192.741 238.107 192.118L236.229 192.407ZM229.867 250.683L231.358 251.861C231.812 251.286 231.894 250.502 231.571 249.845C231.248 249.188 230.577 248.775 229.845 248.783L229.867 250.683ZM229.865 250.685L228.374 249.508C227.922 250.079 227.838 250.858 228.155 251.514C228.472 252.169 229.136 252.585 229.865 252.585V250.685ZM333.535 250.685V252.585C334.585 252.585 335.435 251.735 335.435 250.685H333.535ZM333.513 252.583C333.635 252.584 333.756 252.585 333.878 252.585V248.785C333.77 248.785 333.664 248.784 333.557 248.783L333.513 252.583ZM333.878 252.585C351.232 252.585 365.3 238.517 365.3 221.163H361.5C361.5 236.418 349.133 248.785 333.878 248.785V252.585ZM365.3 221.163C365.3 203.809 351.232 189.742 333.878 189.742V193.542C349.133 193.542 361.5 205.908 361.5 221.163H365.3ZM333.878 189.742C333.756 189.742 333.635 189.742 333.513 189.744L333.557 193.544C333.664 193.542 333.77 193.542 333.878 193.542V189.742ZM331.635 191.642V191.644H335.435V191.642H331.635ZM325.908 193.542H333.535V189.742H325.908V193.542ZM327.791 191.898C328.078 189.793 328.226 187.644 328.226 185.462H324.426C324.426 187.472 324.289 189.449 324.025 191.384L327.791 191.898ZM328.226 185.462C328.226 159.388 307.088 138.25 281.013 138.25V142.05C304.989 142.05 324.426 161.486 324.426 185.462H328.226ZM281.013 138.25C254.938 138.25 233.801 159.388 233.801 185.462H237.601C237.601 161.486 257.037 142.05 281.013 142.05V138.25ZM233.801 185.462C233.801 187.921 233.989 190.337 234.352 192.695L238.107 192.118C237.774 189.95 237.601 187.727 237.601 185.462H233.801ZM236.66 190.556C234.364 190.023 231.975 189.742 229.522 189.742V193.542C231.683 193.542 233.785 193.79 235.8 194.257L236.66 190.556ZM229.522 189.742C212.168 189.742 198.1 203.809 198.1 221.163H201.9C201.9 205.908 214.267 193.542 229.522 193.542V189.742ZM198.1 221.163C198.1 238.517 212.168 252.585 229.522 252.585V248.785C214.267 248.785 201.9 236.418 201.9 221.163H198.1ZM229.522 252.585C229.644 252.585 229.766 252.584 229.888 252.583L229.845 248.783C229.738 248.784 229.63 248.785 229.522 248.785V252.585ZM231.357 251.862L231.358 251.861L228.376 249.506L228.374 249.508L231.357 251.862ZM333.535 248.785H229.865V252.585H333.535V248.785ZM331.635 250.683V250.685H335.435V250.683H331.635Z" fill="url(#paint8_linear_2_208)"/>
</g>
</g>
</g>
<defs>
<filter id="filter0_d_2_208" x="-34.4" y="71.9" width="263.4" height="210.535" filterUnits="userSpaceOnUse" color-interpolation-filters="sRGB">
<feFlood flood-opacity="0" result="BackgroundImageFix"/>
<feColorMatrix in="SourceAlpha" type="matrix" values="0 0 0 0 0 0 0 0 0 0 0 0 0 0 0 0 0 0 127 0" result="hardAlpha"/>
<feOffset dx="-21" dy="15"/>
<feGaussianBlur stdDeviation="25"/>
<feComposite in2="hardAlpha" operator="out"/>
<feColorMatrix type="matrix" values="0 0 0 0 0.113438 0 0 0 0 0.148981 0 0 0 0 0.275 0 0 0 0.25 0"/>
<feBlend mode="normal" in2="BackgroundImageFix" result="effect1_dropShadow_2_208"/>
<feBlend mode="normal" in="SourceGraphic" in2="effect1_dropShadow_2_208" result="shape"/>
</filter>
<filter id="filter1_d_2_208" x="3.59998" y="105.15" width="326.1" height="252.95" filterUnits="userSpaceOnUse" color-interpolation-filters="sRGB">
<feFlood flood-opacity="0" result="BackgroundImageFix"/>
<feColorMatrix in="SourceAlpha" type="matrix" values="0 0 0 0 0 0 0 0 0 0 0 0 0 0 0 0 0 0 127 0" result="hardAlpha"/>
<feOffset dx="-21" dy="15"/>
<feGaussianBlur stdDeviation="25"/>
<feComposite in2="hardAlpha" operator="out"/>
<feColorMatrix type="matrix" values="0 0 0 0 0.113725 0 0 0 0 0.14902 0 0 0 0 0.27451 0 0 0 0.25 0"/>
<feBlend mode="normal" in2="BackgroundImageFix" result="effect1_dropShadow_2_208"/>
<feBlend mode="normal" in="SourceGraphic" in2="effect1_dropShadow_2_208" result="shape"/>
</filter>
<filter id="filter2_d_2_208" x="129" y="105.15" width="263.4" height="210.535" filterUnits="userSpaceOnUse" color-interpolation-filters="sRGB">
<feFlood flood-opacity="0" result="BackgroundImageFix"/>
<feColorMatrix in="SourceAlpha" type="matrix" values="0 0 0 0 0 0 0 0 0 0 0 0 0 0 0 0 0 0 127 0" result="hardAlpha"/>
<feOffset dx="-21" dy="15"/>
<feGaussianBlur stdDeviation="25"/>
<feComposite in2="hardAlpha" operator="out"/>
<feColorMatrix type="matrix" values="0 0 0 0 0.113438 0 0 0 0 0.148981 0 0 0 0 0.275 0 0 0 0.25 0"/>
<feBlend mode="normal" in2="BackgroundImageFix" result="effect1_dropShadow_2_208"/>
<feBlend mode="normal" in="SourceGraphic" in2="effect1_dropShadow_2_208" result="shape"/>
</filter>
<linearGradient id="paint0_linear_2_208" x1="125.9" y1="110.225" x2="125.9" y2="229.925" gradientUnits="userSpaceOnUse">
<stop stop-color="white"/>
<stop offset="1" stop-color="white" stop-opacity="0"/>
</linearGradient>
<linearGradient id="paint1_linear_2_208" x1="118.3" y1="106.9" x2="118.3" y2="217.435" gradientUnits="userSpaceOnUse">
<stop stop-color="white"/>
<stop offset="1" stop-color="white" stop-opacity="0"/>
</linearGradient>
<linearGradient id="paint2_linear_2_208" x1="118.3" y1="106.9" x2="118.3" y2="217.435" gradientUnits="userSpaceOnUse">
<stop stop-color="white"/>
<stop offset="1" stop-color="white" stop-opacity="0"/>
</linearGradient>
<linearGradient id="paint3_linear_2_208" x1="187.65" y1="91.225" x2="187.65" y2="314.475" gradientUnits="userSpaceOnUse">
<stop stop-color="white"/>
<stop offset="1" stop-color="white" stop-opacity="0"/>
</linearGradient>
<linearGradient id="paint4_linear_2_208" x1="187.65" y1="140.15" x2="187.65" y2="293.1" gradientUnits="userSpaceOnUse">
<stop stop-color="white"/>
<stop offset="1" stop-color="white" stop-opacity="0"/>
</linearGradient>
<linearGradient id="paint5_linear_2_208" x1="187.65" y1="140.15" x2="187.65" y2="293.1" gradientUnits="userSpaceOnUse">
<stop stop-color="white"/>
<stop offset="1" stop-color="white" stop-opacity="0"/>
</linearGradient>
<linearGradient id="paint6_linear_2_208" x1="289.3" y1="143.475" x2="289.3" y2="263.175" gradientUnits="userSpaceOnUse">
<stop stop-color="white"/>
<stop offset="1" stop-color="white" stop-opacity="0"/>
</linearGradient>
<linearGradient id="paint7_linear_2_208" x1="281.7" y1="140.15" x2="281.7" y2="250.685" gradientUnits="userSpaceOnUse">
<stop stop-color="white"/>
<stop offset="1" stop-color="white" stop-opacity="0"/>
</linearGradient>
<linearGradient id="paint8_linear_2_208" x1="281.7" y1="140.15" x2="281.7" y2="250.685" gradientUnits="userSpaceOnUse">
<stop stop-color="white"/>
<stop offset="1" stop-color="white" stop-opacity="0"/>
</linearGradient>
</defs>
</svg>
