<svg width="400" height="400" viewBox="0 0 400 400" fill="none" xmlns="http://www.w3.org/2000/svg">
<g clip-path="url(#clip0_2_3)">
<mask id="mask0_2_3" style="mask-type:luminance" maskUnits="userSpaceOnUse" x="0" y="0" width="400" height="400">
<path d="M400 0H0V400H400V0Z" fill="white"/>
</mask>
<g mask="url(#mask0_2_3)">
<g filter="url(#filter0_dd_2_3)">
<path fill-rule="evenodd" clip-rule="evenodd" d="M190.571 87.0524C193.51 86.531 195.296 90.0097 193.748 92.5621C185.651 105.917 184.476 123.041 192.144 137.948C202.351 157.792 224.868 167.174 245.573 161.564C248.457 160.783 251.306 163.466 249.989 166.147C244.92 176.466 236.61 185.304 225.601 190.966C198.371 204.973 164.942 194.253 150.936 167.023C136.929 139.793 147.649 106.364 174.879 92.3579C179.95 89.7496 185.236 87.9988 190.571 87.0524Z" fill="url(#paint0_linear_2_3)"/>
<mask id="mask1_2_3" style="mask-type:luminance" maskUnits="userSpaceOnUse" x="144" y="87" width="107" height="111">
<path fill-rule="evenodd" clip-rule="evenodd" d="M190.571 87.0524C193.51 86.531 195.296 90.0097 193.748 92.5621C185.651 105.917 184.476 123.041 192.144 137.948C202.351 157.792 224.868 167.174 245.573 161.564C248.457 160.783 251.306 163.466 249.989 166.147C244.92 176.466 236.61 185.304 225.601 190.966C198.371 204.973 164.942 194.253 150.936 167.023C136.929 139.793 147.649 106.364 174.879 92.3579C179.95 89.7496 185.236 87.9988 190.571 87.0524Z" fill="url(#paint1_linear_2_3)"/>
</mask>
<g mask="url(#mask1_2_3)">
<path d="M193.665 137.166C186.28 122.809 187.409 106.317 195.21 93.4486L192.286 91.6755C183.893 105.518 182.673 123.272 190.623 138.73L193.665 137.166ZM245.125 159.914C225.182 165.317 203.495 156.278 193.665 137.166L190.623 138.73C201.207 159.307 224.552 169.031 246.02 163.215L245.125 159.914ZM248.454 165.393C243.542 175.394 235.489 183.957 224.818 189.446L226.383 192.487C237.73 186.65 246.298 177.538 251.523 166.9L248.454 165.393ZM224.818 189.446C198.428 203.02 166.03 192.631 152.456 166.24L149.415 167.805C163.853 195.875 198.313 206.926 226.383 192.487L224.818 189.446ZM152.456 166.24C138.882 139.85 149.271 107.453 175.662 93.8785L174.097 90.8372C146.027 105.275 134.977 139.735 149.415 167.805L152.456 166.24ZM175.662 93.8785C180.579 91.3494 185.701 89.653 190.87 88.7361L190.272 85.3686C184.771 86.3446 179.322 88.1499 174.097 90.8372L175.662 93.8785ZM246.02 163.215C246.835 162.994 247.646 163.265 248.147 163.767C248.616 164.236 248.744 164.804 248.454 165.393L251.523 166.9C252.551 164.808 251.911 162.695 250.565 161.348C249.25 160.033 247.194 159.353 245.125 159.914L246.02 163.215ZM195.21 93.4486C196.32 91.6177 196.237 89.4551 195.339 87.828C194.419 86.1618 192.566 84.9617 190.272 85.3686L190.87 88.7361C191.515 88.6217 192.025 88.9002 192.345 89.4811C192.687 90.1011 192.723 90.9539 192.286 91.6755L195.21 93.4486Z" fill="url(#paint2_linear_2_3)"/>
</g>
</g>
<mask id="mask2_2_3" style="mask-type:alpha" maskUnits="userSpaceOnUse" x="167" y="157" width="102" height="73">
<path d="M268.36 179.275C268.36 207.135 245.775 229.72 217.915 229.72C190.055 229.72 167.47 207.135 167.47 179.275C167.47 151.415 186.207 157.9 214.068 157.9C241.928 157.9 268.36 151.415 268.36 179.275Z" fill="url(#paint3_linear_2_3)"/>
</mask>
<g mask="url(#mask2_2_3)">
<g filter="url(#filter1_f_2_3)">
</g>
</g>
<g filter="url(#filter2_d_2_3)">
<path fill-rule="evenodd" clip-rule="evenodd" d="M236.298 312.652C236.439 312.654 236.582 312.655 236.725 312.655C257.03 312.655 273.49 296.194 273.49 275.89C273.49 255.585 257.03 239.125 236.725 239.125C236.582 239.125 236.439 239.126 236.298 239.128V239.125H226.799C227.143 236.609 227.32 234.04 227.32 231.43C227.32 200.264 202.056 175 170.89 175C139.724 175 114.46 200.264 114.46 231.43C114.46 234.37 114.685 237.258 115.118 240.078C112.435 239.455 109.638 239.125 106.765 239.125C86.4603 239.125 70 255.585 70 275.89C70 296.194 86.4603 312.655 106.765 312.655C106.908 312.655 107.052 312.654 107.194 312.652L107.193 312.655H236.298V312.652Z" fill="url(#paint4_linear_2_3)"/>
<mask id="mask3_2_3" style="mask-type:luminance" maskUnits="userSpaceOnUse" x="70" y="175" width="204" height="138">
<path fill-rule="evenodd" clip-rule="evenodd" d="M236.298 312.652C236.439 312.654 236.582 312.655 236.725 312.655C257.03 312.655 273.49 296.194 273.49 275.89C273.49 255.585 257.03 239.125 236.725 239.125C236.582 239.125 236.439 239.126 236.298 239.128V239.125H226.799C227.143 236.609 227.32 234.04 227.32 231.43C227.32 200.264 202.056 175 170.89 175C139.724 175 114.46 200.264 114.46 231.43C114.46 234.37 114.685 237.258 115.118 240.078C112.435 239.455 109.638 239.125 106.765 239.125C86.4603 239.125 70 255.585 70 275.89C70 296.194 86.4603 312.655 106.765 312.655C106.908 312.655 107.052 312.654 107.194 312.652L107.193 312.655H236.298V312.652Z" fill="url(#paint5_linear_2_3)"/>
</mask>
<g mask="url(#mask3_2_3)">
<path d="M236.298 312.652L236.317 310.942C235.86 310.937 235.42 311.115 235.095 311.437C234.77 311.758 234.588 312.196 234.588 312.652H236.298ZM236.298 239.127H234.588C234.588 239.584 234.77 240.022 235.095 240.343C235.42 240.665 235.86 240.843 236.317 240.837L236.298 239.127ZM236.298 239.125H238.008C238.008 238.18 237.242 237.415 236.298 237.415V239.125ZM226.799 239.125L225.106 238.894C225.039 239.383 225.187 239.877 225.512 240.249C225.837 240.621 226.306 240.835 226.799 240.835V239.125ZM115.118 240.078L114.732 241.744C115.284 241.872 115.865 241.718 116.281 241.333C116.698 240.946 116.895 240.379 116.809 239.818L115.118 240.078ZM107.195 312.652L108.536 313.713C108.945 313.195 109.02 312.49 108.729 311.898C108.438 311.307 107.834 310.935 107.175 310.942L107.195 312.652ZM107.193 312.655L105.851 311.595C105.444 312.109 105.368 312.811 105.654 313.4C105.939 313.99 106.537 314.365 107.193 314.365V312.655ZM236.298 312.655V314.365C237.242 314.365 238.008 313.6 238.008 312.655H236.298ZM236.278 314.362C236.427 314.364 236.575 314.365 236.725 314.365V310.945C236.589 310.945 236.453 310.944 236.317 310.942L236.278 314.362ZM236.725 314.365C257.974 314.365 275.2 297.139 275.2 275.89H271.78C271.78 295.251 256.086 310.945 236.725 310.945V314.365ZM275.2 275.89C275.2 254.641 257.974 237.415 236.725 237.415V240.835C256.086 240.835 271.78 256.529 271.78 275.89H275.2ZM236.725 237.415C236.576 237.415 236.427 237.416 236.278 237.417L236.317 240.837C236.453 240.836 236.589 240.835 236.725 240.835V237.415ZM234.588 239.125V239.127H238.008V239.125H234.588ZM226.799 240.835H236.298V237.415H226.799V240.835ZM228.494 239.356C228.848 236.763 229.03 234.117 229.03 231.43H225.61C225.61 233.962 225.438 236.454 225.106 238.894L228.494 239.356ZM229.03 231.43C229.03 199.32 203 173.29 170.89 173.29V176.71C201.111 176.71 225.61 201.209 225.61 231.43H229.03ZM170.89 173.29C138.781 173.29 112.75 199.32 112.75 231.43H116.17C116.17 201.209 140.669 176.71 170.89 176.71V173.29ZM112.75 231.43C112.75 234.458 112.982 237.433 113.428 240.338L116.809 239.818C116.388 237.085 116.17 234.283 116.17 231.43H112.75ZM115.506 238.413C112.696 237.759 109.77 237.415 106.765 237.415V240.835C109.507 240.835 112.174 241.15 114.732 241.744L115.506 238.413ZM106.765 237.415C85.5159 237.415 68.29 254.641 68.29 275.89H71.71C71.71 256.529 87.4047 240.835 106.765 240.835V237.415ZM68.29 275.89C68.29 297.139 85.5159 314.365 106.765 314.365V310.945C87.4047 310.945 71.71 295.251 71.71 275.89H68.29ZM106.765 314.365C106.915 314.365 107.065 314.364 107.214 314.362L107.175 310.942C107.038 310.944 106.902 310.945 106.765 310.945V314.365ZM108.534 313.715L108.536 313.713L105.853 311.592L105.851 311.595L108.534 313.715ZM236.298 310.945H107.193V314.365H236.298V310.945ZM234.588 312.652V312.655H238.008V312.652H234.588Z" fill="url(#paint6_linear_2_3)"/>
</g>
</g>
<g filter="url(#filter3_d_2_3)">
<path fill-rule="evenodd" clip-rule="evenodd" d="M303.041 274.48C303.144 274.481 303.248 274.482 303.35 274.482C318.024 274.482 329.92 262.586 329.92 247.912C329.92 233.238 318.024 221.343 303.35 221.343C303.248 221.343 303.144 221.343 303.041 221.344V221.343H296.178C296.425 219.524 296.554 217.668 296.554 215.781C296.554 193.258 278.295 175 255.772 175C233.25 175 214.991 193.258 214.991 215.781C214.991 217.906 215.153 219.993 215.466 222.031C213.527 221.58 211.506 221.343 209.43 221.343C194.756 221.343 182.86 233.238 182.86 247.912C182.86 262.586 194.756 274.482 209.43 274.482C209.534 274.482 209.637 274.481 209.74 274.48L209.739 274.482H303.041V274.48Z" fill="url(#paint7_linear_2_3)"/>
<mask id="mask4_2_3" style="mask-type:luminance" maskUnits="userSpaceOnUse" x="182" y="175" width="148" height="100">
<path fill-rule="evenodd" clip-rule="evenodd" d="M303.041 274.48C303.144 274.481 303.248 274.482 303.35 274.482C318.024 274.482 329.92 262.586 329.92 247.912C329.92 233.238 318.024 221.343 303.35 221.343C303.248 221.343 303.144 221.343 303.041 221.344V221.343H296.178C296.425 219.524 296.554 217.668 296.554 215.781C296.554 193.258 278.295 175 255.772 175C233.25 175 214.991 193.258 214.991 215.781C214.991 217.906 215.153 219.993 215.466 222.031C213.527 221.58 211.506 221.343 209.43 221.343C194.756 221.343 182.86 233.238 182.86 247.912C182.86 262.586 194.756 274.482 209.43 274.482C209.534 274.482 209.637 274.481 209.74 274.48L209.739 274.482H303.041V274.48Z" fill="url(#paint8_linear_2_3)"/>
</mask>
<g mask="url(#mask4_2_3)">
<path d="M303.041 274.48L303.061 272.77C302.604 272.765 302.164 272.943 301.839 273.264C301.514 273.585 301.331 274.023 301.331 274.48H303.041ZM303.041 221.344H301.331C301.331 221.801 301.514 222.239 301.839 222.56C302.164 222.882 302.604 223.059 303.061 223.054L303.041 221.344ZM303.041 221.343H304.751C304.751 220.398 303.986 219.633 303.041 219.633V221.343ZM296.177 221.343L294.483 221.111C294.416 221.601 294.565 222.095 294.889 222.467C295.214 222.839 295.683 223.053 296.177 223.053V221.343ZM215.466 222.031L215.08 223.696C215.632 223.826 216.213 223.671 216.629 223.285C217.045 222.9 217.243 222.332 217.157 221.771L215.466 222.031ZM209.74 274.48L211.082 275.539C211.491 275.022 211.565 274.317 211.274 273.725C210.984 273.134 210.379 272.762 209.721 272.77L209.74 274.48ZM209.739 274.482L208.396 273.422C207.99 273.936 207.914 274.637 208.2 275.227C208.485 275.817 209.083 276.192 209.739 276.192V274.482ZM303.041 274.482V276.192C303.986 276.192 304.751 275.427 304.751 274.482H303.041ZM303.022 276.19C303.131 276.191 303.241 276.192 303.35 276.192V272.772C303.253 272.772 303.158 272.771 303.061 272.77L303.022 276.19ZM303.35 276.192C318.969 276.192 331.63 263.53 331.63 247.912H328.21C328.21 261.641 317.08 272.772 303.35 272.772V276.192ZM331.63 247.912C331.63 232.293 318.969 219.633 303.35 219.633V223.053C317.08 223.053 328.21 234.182 328.21 247.912H331.63ZM303.35 219.633C303.241 219.633 303.131 219.633 303.022 219.634L303.061 223.054C303.158 223.053 303.253 223.053 303.35 223.053V219.633ZM301.331 221.343V221.344H304.751V221.343H301.331ZM296.177 223.053H303.041V219.633H296.177V223.053ZM297.872 221.573C298.13 219.679 298.264 217.745 298.264 215.781H294.844C294.844 217.59 294.721 219.369 294.483 221.111L297.872 221.573ZM298.264 215.781C298.264 192.314 279.239 173.29 255.772 173.29V176.71C277.35 176.71 294.844 194.202 294.844 215.781H298.264ZM255.772 173.29C232.305 173.29 213.281 192.314 213.281 215.781H216.701C216.701 194.202 234.193 176.71 255.772 176.71V173.29ZM213.281 215.781C213.281 217.994 213.45 220.168 213.777 222.291L217.157 221.771C216.857 219.82 216.701 217.819 216.701 215.781H213.281ZM215.854 220.365C213.788 219.886 211.638 219.633 209.43 219.633V223.053C211.375 223.053 213.266 223.276 215.08 223.696L215.854 220.365ZM209.43 219.633C193.811 219.633 181.15 232.293 181.15 247.912H184.57C184.57 234.182 195.7 223.053 209.43 223.053V219.633ZM181.15 247.912C181.15 263.53 193.811 276.192 209.43 276.192V272.772C195.7 272.772 184.57 261.641 184.57 247.912H181.15ZM209.43 276.192C209.539 276.192 209.65 276.191 209.759 276.19L209.721 272.77C209.624 272.771 209.527 272.772 209.43 272.772V276.192ZM211.081 275.541L211.082 275.539L208.398 273.421L208.396 273.422L211.081 275.541ZM303.041 272.772H209.739V276.192H303.041V272.772ZM301.331 274.48V274.482H304.751V274.48H301.331Z" fill="url(#paint9_linear_2_3)"/>
</g>
</g>
</g>
</g>
<defs>
<filter id="filter0_dd_2_3" x="73.7842" y="49" width="214.536" height="213.118" filterUnits="userSpaceOnUse" color-interpolation-filters="sRGB">
<feFlood flood-opacity="0" result="BackgroundImageFix"/>
<feColorMatrix in="SourceAlpha" type="matrix" values="0 0 0 0 0 0 0 0 0 0 0 0 0 0 0 0 0 0 127 0" result="hardAlpha"/>
<feOffset dx="-21" dy="15"/>
<feGaussianBlur stdDeviation="25"/>
<feComposite in2="hardAlpha" operator="out"/>
<feColorMatrix type="matrix" values="0 0 0 0 0.113438 0 0 0 0 0.148981 0 0 0 0 0.275 0 0 0 0.25 0"/>
<feBlend mode="normal" in2="BackgroundImageFix" result="effect1_dropShadow_2_3"/>
<feColorMatrix in="SourceAlpha" type="matrix" values="0 0 0 0 0 0 0 0 0 0 0 0 0 0 0 0 0 0 127 0" result="hardAlpha"/>
<feOffset/>
<feGaussianBlur stdDeviation="19"/>
<feComposite in2="hardAlpha" operator="out"/>
<feColorMatrix type="matrix" values="0 0 0 0 0.619608 0 0 0 0 0.423529 0 0 0 0 1 0 0 0 0.4 0"/>
<feBlend mode="normal" in2="effect1_dropShadow_2_3" result="effect2_dropShadow_2_3"/>
<feBlend mode="normal" in="SourceGraphic" in2="effect2_dropShadow_2_3" result="shape"/>
</filter>
<filter id="filter1_f_2_3" x="77.375" y="220.85" width="231.49" height="101.53" filterUnits="userSpaceOnUse" color-interpolation-filters="sRGB">
<feFlood flood-opacity="0" result="BackgroundImageFix"/>
<feBlend mode="normal" in="SourceGraphic" in2="BackgroundImageFix" result="shape"/>
<feGaussianBlur stdDeviation="7" result="effect1_foregroundBlur_2_3"/>
</filter>
<filter id="filter2_d_2_3" x="-1" y="140" width="303.49" height="237.655" filterUnits="userSpaceOnUse" color-interpolation-filters="sRGB">
<feFlood flood-opacity="0" result="BackgroundImageFix"/>
<feColorMatrix in="SourceAlpha" type="matrix" values="0 0 0 0 0 0 0 0 0 0 0 0 0 0 0 0 0 0 127 0" result="hardAlpha"/>
<feOffset dx="-21" dy="15"/>
<feGaussianBlur stdDeviation="25"/>
<feComposite in2="hardAlpha" operator="out"/>
<feColorMatrix type="matrix" values="0 0 0 0 0.113725 0 0 0 0 0.14902 0 0 0 0 0.27451 0 0 0 0.25 0"/>
<feBlend mode="normal" in2="BackgroundImageFix" result="effect1_dropShadow_2_3"/>
<feBlend mode="normal" in="SourceGraphic" in2="effect1_dropShadow_2_3" result="shape"/>
</filter>
<filter id="filter3_d_2_3" x="111.86" y="140" width="247.06" height="199.482" filterUnits="userSpaceOnUse" color-interpolation-filters="sRGB">
<feFlood flood-opacity="0" result="BackgroundImageFix"/>
<feColorMatrix in="SourceAlpha" type="matrix" values="0 0 0 0 0 0 0 0 0 0 0 0 0 0 0 0 0 0 127 0" result="hardAlpha"/>
<feOffset dx="-21" dy="15"/>
<feGaussianBlur stdDeviation="25"/>
<feComposite in2="hardAlpha" operator="out"/>
<feColorMatrix type="matrix" values="0 0 0 0 0.113438 0 0 0 0 0.148981 0 0 0 0 0.275 0 0 0 0.25 0"/>
<feBlend mode="normal" in2="BackgroundImageFix" result="effect1_dropShadow_2_3"/>
<feBlend mode="normal" in="SourceGraphic" in2="effect1_dropShadow_2_3" result="shape"/>
</filter>
<linearGradient id="paint0_linear_2_3" x1="164.107" y1="98.9972" x2="214.829" y2="197.606" gradientUnits="userSpaceOnUse">
<stop offset="0.0001" stop-color="#D4C0FF"/>
<stop offset="1" stop-color="#7E2FFF"/>
</linearGradient>
<linearGradient id="paint1_linear_2_3" x1="169.348" y1="44.9202" x2="200.561" y2="174.337" gradientUnits="userSpaceOnUse">
<stop stop-color="white"/>
<stop offset="1" stop-color="white" stop-opacity="0"/>
</linearGradient>
<linearGradient id="paint2_linear_2_3" x1="169.348" y1="44.9202" x2="200.561" y2="174.337" gradientUnits="userSpaceOnUse">
<stop stop-color="white"/>
<stop offset="1" stop-color="white" stop-opacity="0"/>
</linearGradient>
<linearGradient id="paint3_linear_2_3" x1="217.915" y1="128.83" x2="217.915" y2="229.72" gradientUnits="userSpaceOnUse">
<stop stop-color="#FFD600"/>
<stop offset="1" stop-color="#FF7A00"/>
</linearGradient>
<linearGradient id="paint4_linear_2_3" x1="171.745" y1="130.967" x2="171.745" y2="331.892" gradientUnits="userSpaceOnUse">
<stop stop-color="white"/>
<stop offset="1" stop-color="white" stop-opacity="0"/>
</linearGradient>
<linearGradient id="paint5_linear_2_3" x1="171.745" y1="175" x2="171.745" y2="312.655" gradientUnits="userSpaceOnUse">
<stop stop-color="white"/>
<stop offset="1" stop-color="white" stop-opacity="0"/>
</linearGradient>
<linearGradient id="paint6_linear_2_3" x1="171.745" y1="175" x2="171.745" y2="312.655" gradientUnits="userSpaceOnUse">
<stop stop-color="white"/>
<stop offset="1" stop-color="white" stop-opacity="0"/>
</linearGradient>
<linearGradient id="paint7_linear_2_3" x1="263.23" y1="177.992" x2="263.23" y2="285.722" gradientUnits="userSpaceOnUse">
<stop stop-color="white"/>
<stop offset="1" stop-color="white" stop-opacity="0"/>
</linearGradient>
<linearGradient id="paint8_linear_2_3" x1="256.39" y1="175" x2="256.39" y2="274.482" gradientUnits="userSpaceOnUse">
<stop stop-color="white"/>
<stop offset="1" stop-color="white" stop-opacity="0"/>
</linearGradient>
<linearGradient id="paint9_linear_2_3" x1="256.39" y1="175" x2="256.39" y2="274.482" gradientUnits="userSpaceOnUse">
<stop stop-color="white"/>
<stop offset="1" stop-color="white" stop-opacity="0"/>
</linearGradient>
<clipPath id="clip0_2_3">
<rect width="400" height="400" fill="white"/>
</clipPath>
</defs>
</svg>
