<svg width="400" height="400" viewBox="0 0 400 400" fill="none" xmlns="http://www.w3.org/2000/svg">
<g clip-path="url(#clip0_2_208)">
<g filter="url(#filter0_d_2_208)">
<path fill-rule="evenodd" clip-rule="evenodd" d="M175.326 214.322C175.42 214.323 175.515 214.324 175.609 214.324C189.08 214.324 200 203.403 200 189.933C200 176.462 189.08 165.542 175.609 165.542C175.515 165.542 175.42 165.542 175.326 165.544V165.542H169.025C169.252 163.873 169.37 162.169 169.37 160.437C169.37 139.761 152.609 123 131.933 123C111.257 123 94.4958 139.761 94.4958 160.437C94.4958 162.388 94.6451 164.304 94.9327 166.174C93.1523 165.76 91.2971 165.542 89.3907 165.542C75.9201 165.542 65 176.462 65 189.933C65 203.403 75.9201 214.324 89.3907 214.324C89.4859 214.324 89.5808 214.323 89.6756 214.322L89.6744 214.324H175.326V214.322Z" fill="url(#paint0_linear_2_208)"/>
<mask id="mask0_2_208" style="mask-type:luminance" maskUnits="userSpaceOnUse" x="65" y="123" width="135" height="92">
<path fill-rule="evenodd" clip-rule="evenodd" d="M175.326 214.322C175.42 214.323 175.515 214.324 175.609 214.324C189.08 214.324 200 203.403 200 189.933C200 176.462 189.08 165.542 175.609 165.542C175.515 165.542 175.42 165.542 175.326 165.544V165.542H169.025C169.252 163.873 169.37 162.169 169.37 160.437C169.37 139.761 152.609 123 131.933 123C111.257 123 94.4958 139.761 94.4958 160.437C94.4958 162.388 94.6451 164.304 94.9327 166.174C93.1523 165.76 91.2971 165.542 89.3907 165.542C75.9201 165.542 65 176.462 65 189.933C65 203.403 75.9201 214.324 89.3907 214.324C89.4859 214.324 89.5808 214.323 89.6756 214.322L89.6744 214.324H175.326V214.322Z" fill="url(#paint1_linear_2_208)"/>
</mask>
<g mask="url(#mask0_2_208)">
<path d="M175.326 214.322L175.344 212.752C174.925 212.747 174.52 212.911 174.222 213.206C173.924 213.5 173.756 213.902 173.756 214.322H175.326ZM175.326 165.544H173.756C173.756 165.963 173.924 166.365 174.222 166.66C174.52 166.955 174.924 167.118 175.344 167.114L175.326 165.544ZM175.326 165.542H176.895C176.895 164.675 176.193 163.972 175.326 163.972V165.542ZM169.025 165.542L167.469 165.33C167.408 165.779 167.544 166.233 167.842 166.574C168.14 166.916 168.571 167.112 169.025 167.112V165.542ZM94.9328 166.174L94.5775 167.703C95.085 167.822 95.6179 167.679 96 167.325C96.382 166.972 96.5634 166.45 96.4843 165.935L94.9328 166.174ZM89.6757 214.322L90.9077 215.294C91.2826 214.82 91.3513 214.172 91.0844 213.629C90.8176 213.087 90.2626 212.745 89.6578 212.752L89.6757 214.322ZM89.6744 214.324L88.4423 213.351C88.0696 213.823 87.9994 214.466 88.2618 215.008C88.5241 215.55 89.0728 215.893 89.6744 215.893V214.324ZM175.326 214.324V215.893C176.193 215.893 176.895 215.191 176.895 214.324H175.326ZM175.308 215.892C175.408 215.893 175.509 215.893 175.609 215.893V212.754C175.52 212.754 175.432 212.753 175.344 212.752L175.308 215.892ZM175.609 215.893C189.947 215.893 201.57 204.27 201.57 189.932H198.43C198.43 202.536 188.213 212.754 175.609 212.754V215.893ZM201.57 189.932C201.57 175.595 189.947 163.972 175.609 163.972V167.112C188.213 167.112 198.43 177.329 198.43 189.932H201.57ZM175.609 163.972C175.509 163.972 175.408 163.972 175.308 163.974L175.344 167.114C175.432 167.112 175.52 167.112 175.609 167.112V163.972ZM173.756 165.542V165.544H176.895V165.542H173.756ZM169.025 167.112H175.326V163.972H169.025V167.112ZM170.58 165.754C170.817 164.015 170.94 162.239 170.94 160.437H167.8C167.8 162.097 167.687 163.731 167.469 165.33L170.58 165.754ZM170.94 160.437C170.94 138.894 153.475 121.43 131.933 121.43V124.57C151.741 124.57 167.8 140.628 167.8 160.437H170.94ZM131.933 121.43C110.39 121.43 92.9261 138.894 92.9261 160.437H96.0656C96.0656 140.628 112.124 124.57 131.933 124.57V121.43ZM92.9261 160.437C92.9261 162.468 93.0815 164.464 93.3812 166.413L96.4843 165.935C96.2087 164.144 96.0656 162.308 96.0656 160.437H92.9261ZM95.288 164.645C93.392 164.205 91.4175 163.972 89.3908 163.972V167.112C91.1767 167.112 92.9127 167.317 94.5775 167.703L95.288 164.645ZM89.3908 163.972C75.0532 163.972 63.4303 175.595 63.4303 189.932H66.5698C66.5698 177.329 76.7871 167.112 89.3908 167.112V163.972ZM63.4303 189.932C63.4303 204.27 75.0532 215.893 89.3908 215.893V212.754C76.7871 212.754 66.5698 202.536 66.5698 189.932H63.4303ZM89.3908 215.893C89.4919 215.893 89.5928 215.893 89.6937 215.892L89.6578 212.752C89.5689 212.753 89.4799 212.754 89.3908 212.754V215.893ZM90.9065 215.296L90.9077 215.294L88.4437 213.349L88.4423 213.351L90.9065 215.296ZM175.326 212.754H89.6744V215.893H175.326V212.754ZM173.756 214.322V214.324H176.895V214.322H173.756Z" fill="url(#paint2_linear_2_208)"/>
</g>
</g>
<g filter="url(#filter1_d_2_208)">
<path fill-rule="evenodd" clip-rule="evenodd" d="M249.055 276.835C249.185 276.836 249.317 276.837 249.448 276.837C268.087 276.837 283.198 261.727 283.198 243.087C283.198 224.448 268.087 209.337 249.448 209.337C249.317 209.337 249.185 209.338 249.055 209.34V209.337H240.336C240.651 207.027 240.814 204.669 240.814 202.273C240.814 173.663 217.621 150.471 189.012 150.471C160.402 150.471 137.209 173.663 137.209 202.273C137.209 204.972 137.416 207.624 137.814 210.212C135.35 209.64 132.783 209.337 130.145 209.337C111.506 209.337 96.3953 224.448 96.3953 243.087C96.3953 261.727 111.506 276.837 130.145 276.837C130.277 276.837 130.408 276.836 130.539 276.835L130.538 276.837H249.055V276.835Z" fill="url(#paint3_linear_2_208)"/>
<mask id="mask1_2_208" style="mask-type:luminance" maskUnits="userSpaceOnUse" x="96" y="150" width="188" height="127">
<path fill-rule="evenodd" clip-rule="evenodd" d="M249.055 276.835C249.185 276.836 249.317 276.837 249.448 276.837C268.087 276.837 283.198 261.727 283.198 243.087C283.198 224.448 268.087 209.337 249.448 209.337C249.317 209.337 249.185 209.338 249.055 209.34V209.337H240.336C240.651 207.027 240.814 204.669 240.814 202.273C240.814 173.663 217.621 150.471 189.012 150.471C160.402 150.471 137.209 173.663 137.209 202.273C137.209 204.972 137.416 207.624 137.814 210.212C135.35 209.64 132.783 209.337 130.145 209.337C111.506 209.337 96.3953 224.448 96.3953 243.087C96.3953 261.727 111.506 276.837 130.145 276.837C130.277 276.837 130.408 276.836 130.539 276.835L130.538 276.837H249.055V276.835Z" fill="url(#paint4_linear_2_208)"/>
</mask>
<g mask="url(#mask1_2_208)">
<path d="M249.055 276.835L249.073 275.265C248.653 275.26 248.25 275.424 247.952 275.719C247.653 276.014 247.485 276.416 247.485 276.835H249.055ZM249.055 209.34H247.485C247.485 209.759 247.653 210.161 247.952 210.456C248.25 210.751 248.653 210.914 249.073 210.909L249.055 209.34ZM249.055 209.337H250.625C250.625 208.47 249.922 207.767 249.055 207.767V209.337ZM240.336 209.337L238.781 209.125C238.72 209.574 238.856 210.028 239.154 210.369C239.452 210.711 239.883 210.907 240.336 210.907V209.337ZM137.814 210.212L137.459 211.741C137.966 211.859 138.499 211.718 138.881 211.364C139.263 211.009 139.445 210.489 139.365 209.974L137.814 210.212ZM130.539 276.835L131.772 277.808C132.146 277.333 132.215 276.686 131.948 276.143C131.681 275.599 131.126 275.258 130.521 275.265L130.539 276.835ZM130.538 276.837L129.306 275.864C128.933 276.336 128.863 276.98 129.125 277.522C129.387 278.063 129.936 278.407 130.538 278.407V276.837ZM249.055 276.837V278.407C249.922 278.407 250.625 277.704 250.625 276.837H249.055ZM249.037 278.405C249.174 278.406 249.31 278.407 249.448 278.407V275.267C249.323 275.267 249.198 275.267 249.073 275.265L249.037 278.405ZM249.448 278.407C268.954 278.407 284.767 262.594 284.767 243.087H281.628C281.628 260.86 267.221 275.267 249.448 275.267V278.407ZM284.767 243.087C284.767 223.58 268.954 207.767 249.448 207.767V210.907C267.221 210.907 281.628 225.314 281.628 243.087H284.767ZM249.448 207.767C249.311 207.767 249.174 207.768 249.037 207.77L249.073 210.909C249.198 210.908 249.323 210.907 249.448 210.907V207.767ZM247.485 209.337V209.34H250.625V209.337H247.485ZM240.336 210.907H249.055V207.767H240.336V210.907ZM241.892 209.549C242.217 207.169 242.384 204.74 242.384 202.273H239.244C239.244 204.598 239.086 206.885 238.781 209.125L241.892 209.549ZM242.384 202.273C242.384 172.797 218.488 148.901 189.012 148.901V152.041C216.754 152.041 239.244 174.531 239.244 202.273H242.384ZM189.012 148.901C159.535 148.901 135.64 172.797 135.64 202.273H138.779C138.779 174.531 161.269 152.041 189.012 152.041V148.901ZM135.64 202.273C135.64 205.053 135.852 207.784 136.262 210.451L139.365 209.974C138.979 207.464 138.779 204.892 138.779 202.273H135.64ZM138.169 208.683C135.59 208.084 132.903 207.767 130.145 207.767V210.907C132.662 210.907 135.11 211.196 137.459 211.741L138.169 208.683ZM130.145 207.767C110.639 207.767 94.8256 223.58 94.8256 243.087H97.9651C97.9651 225.314 112.373 210.907 130.145 210.907V207.767ZM94.8256 243.087C94.8256 262.594 110.639 278.407 130.145 278.407V275.267C112.373 275.267 97.9651 260.86 97.9651 243.087H94.8256ZM130.145 278.407C130.283 278.407 130.42 278.406 130.557 278.405L130.521 275.265C130.396 275.267 130.271 275.267 130.145 275.267V278.407ZM131.769 277.81L131.772 277.808L129.308 275.862L129.306 275.864L131.769 277.81ZM249.055 275.267H130.538V278.407H249.055V275.267ZM247.485 276.835V276.837H250.625V276.835H247.485Z" fill="url(#paint5_linear_2_208)"/>
</g>
</g>
<g filter="url(#filter2_d_2_208)">
<path fill-rule="evenodd" clip-rule="evenodd" d="M310.326 241.793C310.42 241.794 310.515 241.794 310.609 241.794C324.08 241.794 335 230.874 335 217.403C335 203.933 324.08 193.013 310.609 193.013C310.515 193.013 310.42 193.013 310.326 193.015V193.013H304.025C304.252 191.344 304.37 189.64 304.37 187.908C304.37 167.232 287.609 150.471 266.933 150.471C246.257 150.471 229.496 167.232 229.496 187.908C229.496 189.859 229.645 191.775 229.932 193.645C228.152 193.231 226.297 193.013 224.391 193.013C210.92 193.013 200 203.933 200 217.403C200 230.874 210.92 241.794 224.391 241.794C224.486 241.794 224.581 241.794 224.676 241.793L224.674 241.794H310.326V241.793Z" fill="url(#paint6_linear_2_208)"/>
<mask id="mask2_2_208" style="mask-type:luminance" maskUnits="userSpaceOnUse" x="200" y="150" width="135" height="92">
<path fill-rule="evenodd" clip-rule="evenodd" d="M310.326 241.793C310.42 241.794 310.515 241.794 310.609 241.794C324.08 241.794 335 230.874 335 217.403C335 203.933 324.08 193.013 310.609 193.013C310.515 193.013 310.42 193.013 310.326 193.015V193.013H304.025C304.252 191.344 304.37 189.64 304.37 187.908C304.37 167.232 287.609 150.471 266.933 150.471C246.257 150.471 229.496 167.232 229.496 187.908C229.496 189.859 229.645 191.775 229.932 193.645C228.152 193.231 226.297 193.013 224.391 193.013C210.92 193.013 200 203.933 200 217.403C200 230.874 210.92 241.794 224.391 241.794C224.486 241.794 224.581 241.794 224.676 241.793L224.674 241.794H310.326V241.793Z" fill="url(#paint7_linear_2_208)"/>
</mask>
<g mask="url(#mask2_2_208)">
<path d="M310.326 241.793L310.344 240.223C309.925 240.218 309.52 240.382 309.222 240.677C308.924 240.971 308.756 241.373 308.756 241.793H310.326ZM310.326 193.015H308.756C308.756 193.434 308.924 193.836 309.222 194.131C309.52 194.426 309.924 194.589 310.344 194.584L310.326 193.015ZM310.326 193.013H311.895C311.895 192.146 311.193 191.443 310.326 191.443V193.013ZM304.025 193.013L302.469 192.8C302.408 193.25 302.544 193.704 302.842 194.045C303.14 194.387 303.571 194.583 304.025 194.583V193.013ZM229.932 193.645L229.578 195.174C230.085 195.292 230.618 195.15 231 194.796C231.382 194.442 231.563 193.921 231.484 193.406L229.932 193.645ZM224.676 241.793L225.907 242.765C226.283 242.29 226.351 241.643 226.084 241.1C225.817 240.557 225.262 240.216 224.658 240.223L224.676 241.793ZM224.674 241.794L223.442 240.822C223.069 241.294 222.999 241.937 223.262 242.479C223.524 243.02 224.072 243.364 224.674 243.364V241.794ZM310.326 241.794V243.364C311.193 243.364 311.895 242.662 311.895 241.794H310.326ZM310.308 243.363C310.408 243.363 310.508 243.364 310.609 243.364V240.225C310.52 240.225 310.432 240.224 310.344 240.223L310.308 243.363ZM310.609 243.364C324.947 243.364 336.57 231.741 336.57 217.403H333.43C333.43 230.007 323.213 240.225 310.609 240.225V243.364ZM336.57 217.403C336.57 203.066 324.947 191.443 310.609 191.443V194.583C323.213 194.583 333.43 204.8 333.43 217.403H336.57ZM310.609 191.443C310.508 191.443 310.408 191.443 310.308 191.445L310.344 194.584C310.432 194.583 310.52 194.583 310.609 194.583V191.443ZM308.756 193.013V193.015H311.895V193.013H308.756ZM304.025 194.583H310.326V191.443H304.025V194.583ZM305.58 193.225C305.817 191.486 305.94 189.71 305.94 187.907H302.8C302.8 189.568 302.687 191.202 302.469 192.8L305.58 193.225ZM305.94 187.907C305.94 166.365 288.475 148.901 266.933 148.901V152.041C286.741 152.041 302.8 168.099 302.8 187.907H305.94ZM266.933 148.901C245.39 148.901 227.926 166.365 227.926 187.907H231.066C231.066 168.099 247.124 152.041 266.933 152.041V148.901ZM227.926 187.907C227.926 189.939 228.082 191.935 228.381 193.884L231.484 193.406C231.209 191.615 231.066 189.779 231.066 187.907H227.926ZM230.288 192.116C228.392 191.676 226.418 191.443 224.391 191.443V194.583C226.177 194.583 227.913 194.788 229.578 195.174L230.288 192.116ZM224.391 191.443C210.053 191.443 198.43 203.066 198.43 217.403H201.57C201.57 204.8 211.787 194.583 224.391 194.583V191.443ZM198.43 217.403C198.43 231.741 210.053 243.364 224.391 243.364V240.225C211.787 240.225 201.57 230.007 201.57 217.403H198.43ZM224.391 243.364C224.492 243.364 224.593 243.363 224.693 243.363L224.658 240.223C224.569 240.224 224.48 240.225 224.391 240.225V243.364ZM225.907 242.767L225.907 242.765L223.444 240.82L223.442 240.822L225.907 242.767ZM310.326 240.225H224.674V243.364H310.326V240.225ZM308.756 241.793V241.794H311.895V241.793H308.756Z" fill="url(#paint8_linear_2_208)"/>
</g>
</g>
</g>
<defs>
<filter id="filter0_d_2_208" x="-6" y="88" width="235" height="191.324" filterUnits="userSpaceOnUse" color-interpolation-filters="sRGB">
<feFlood flood-opacity="0" result="BackgroundImageFix"/>
<feColorMatrix in="SourceAlpha" type="matrix" values="0 0 0 0 0 0 0 0 0 0 0 0 0 0 0 0 0 0 127 0" result="hardAlpha"/>
<feOffset dx="-21" dy="15"/>
<feGaussianBlur stdDeviation="25"/>
<feComposite in2="hardAlpha" operator="out"/>
<feColorMatrix type="matrix" values="0 0 0 0 0.113438 0 0 0 0 0.148981 0 0 0 0 0.275 0 0 0 0.25 0"/>
<feBlend mode="normal" in2="BackgroundImageFix" result="effect1_dropShadow_2_208"/>
<feBlend mode="normal" in="SourceGraphic" in2="effect1_dropShadow_2_208" result="shape"/>
</filter>
<filter id="filter1_d_2_208" x="25.3953" y="115.471" width="286.802" height="226.366" filterUnits="userSpaceOnUse" color-interpolation-filters="sRGB">
<feFlood flood-opacity="0" result="BackgroundImageFix"/>
<feColorMatrix in="SourceAlpha" type="matrix" values="0 0 0 0 0 0 0 0 0 0 0 0 0 0 0 0 0 0 127 0" result="hardAlpha"/>
<feOffset dx="-21" dy="15"/>
<feGaussianBlur stdDeviation="25"/>
<feComposite in2="hardAlpha" operator="out"/>
<feColorMatrix type="matrix" values="0 0 0 0 0.113725 0 0 0 0 0.14902 0 0 0 0 0.27451 0 0 0 0.25 0"/>
<feBlend mode="normal" in2="BackgroundImageFix" result="effect1_dropShadow_2_208"/>
<feBlend mode="normal" in="SourceGraphic" in2="effect1_dropShadow_2_208" result="shape"/>
</filter>
<filter id="filter2_d_2_208" x="129" y="115.471" width="235" height="191.324" filterUnits="userSpaceOnUse" color-interpolation-filters="sRGB">
<feFlood flood-opacity="0" result="BackgroundImageFix"/>
<feColorMatrix in="SourceAlpha" type="matrix" values="0 0 0 0 0 0 0 0 0 0 0 0 0 0 0 0 0 0 127 0" result="hardAlpha"/>
<feOffset dx="-21" dy="15"/>
<feGaussianBlur stdDeviation="25"/>
<feComposite in2="hardAlpha" operator="out"/>
<feColorMatrix type="matrix" values="0 0 0 0 0.113438 0 0 0 0 0.148981 0 0 0 0 0.275 0 0 0 0.25 0"/>
<feBlend mode="normal" in2="BackgroundImageFix" result="effect1_dropShadow_2_208"/>
<feBlend mode="normal" in="SourceGraphic" in2="effect1_dropShadow_2_208" result="shape"/>
</filter>
<linearGradient id="paint0_linear_2_208" x1="138.779" y1="125.747" x2="138.779" y2="224.642" gradientUnits="userSpaceOnUse">
<stop stop-color="white"/>
<stop offset="1" stop-color="white" stop-opacity="0"/>
</linearGradient>
<linearGradient id="paint1_linear_2_208" x1="132.5" y1="123" x2="132.5" y2="214.324" gradientUnits="userSpaceOnUse">
<stop stop-color="white"/>
<stop offset="1" stop-color="white" stop-opacity="0"/>
</linearGradient>
<linearGradient id="paint2_linear_2_208" x1="132.5" y1="123" x2="132.5" y2="214.324" gradientUnits="userSpaceOnUse">
<stop stop-color="white"/>
<stop offset="1" stop-color="white" stop-opacity="0"/>
</linearGradient>
<linearGradient id="paint3_linear_2_208" x1="189.796" y1="110.049" x2="189.796" y2="294.497" gradientUnits="userSpaceOnUse">
<stop stop-color="white"/>
<stop offset="1" stop-color="white" stop-opacity="0"/>
</linearGradient>
<linearGradient id="paint4_linear_2_208" x1="189.796" y1="150.471" x2="189.796" y2="276.837" gradientUnits="userSpaceOnUse">
<stop stop-color="white"/>
<stop offset="1" stop-color="white" stop-opacity="0"/>
</linearGradient>
<linearGradient id="paint5_linear_2_208" x1="189.796" y1="150.471" x2="189.796" y2="276.837" gradientUnits="userSpaceOnUse">
<stop stop-color="white"/>
<stop offset="1" stop-color="white" stop-opacity="0"/>
</linearGradient>
<linearGradient id="paint6_linear_2_208" x1="273.779" y1="153.218" x2="273.779" y2="252.113" gradientUnits="userSpaceOnUse">
<stop stop-color="white"/>
<stop offset="1" stop-color="white" stop-opacity="0"/>
</linearGradient>
<linearGradient id="paint7_linear_2_208" x1="267.5" y1="150.471" x2="267.5" y2="241.794" gradientUnits="userSpaceOnUse">
<stop stop-color="white"/>
<stop offset="1" stop-color="white" stop-opacity="0"/>
</linearGradient>
<linearGradient id="paint8_linear_2_208" x1="267.5" y1="150.471" x2="267.5" y2="241.794" gradientUnits="userSpaceOnUse">
<stop stop-color="white"/>
<stop offset="1" stop-color="white" stop-opacity="0"/>
</linearGradient>
<clipPath id="clip0_2_208">
<rect width="400" height="400" fill="white"/>
</clipPath>
</defs>
</svg>
