<svg width="400" height="400" viewBox="0 0 400 400" fill="none" xmlns="http://www.w3.org/2000/svg">
<g clip-path="url(#clip0_2_300)">
<g filter="url(#filter0_bdd_2_300)">
<mask id="path-1-inside-1_2_300" fill="white">
<path fill-rule="evenodd" clip-rule="evenodd" d="M189.019 74.1374C192.456 73.5276 194.545 77.5962 192.735 80.5815C183.264 96.2017 181.89 116.229 190.858 133.664C202.797 156.874 229.132 167.847 253.348 161.286C256.721 160.372 260.054 163.51 258.513 166.646C252.585 178.715 242.865 189.051 229.989 195.674C198.141 212.056 159.043 199.518 142.662 167.67C126.28 135.822 138.818 96.7242 170.666 80.3426C176.597 77.292 182.779 75.2443 189.019 74.1374Z"/>
</mask>
<path fill-rule="evenodd" clip-rule="evenodd" d="M189.019 74.1374C192.456 73.5276 194.545 77.5962 192.735 80.5815C183.264 96.2017 181.89 116.229 190.858 133.664C202.797 156.874 229.132 167.847 253.348 161.286C256.721 160.372 260.054 163.51 258.513 166.646C252.585 178.715 242.865 189.051 229.989 195.674C198.141 212.056 159.043 199.518 142.662 167.67C126.28 135.822 138.818 96.7242 170.666 80.3426C176.597 77.292 182.779 75.2443 189.019 74.1374Z" fill="url(#paint0_linear_2_300)"/>
<path d="M258.513 166.646L260.308 167.527L258.513 166.646ZM192.637 132.75C184 115.958 185.32 96.669 194.445 81.6184L191.025 79.5445C181.208 95.7344 179.781 116.5 189.08 134.579L192.637 132.75ZM252.825 159.356C229.5 165.675 204.135 155.103 192.637 132.75L189.08 134.579C201.459 158.646 228.763 170.019 253.871 163.216L252.825 159.356ZM256.718 165.764C250.973 177.461 241.555 187.476 229.074 193.896L230.904 197.453C244.175 190.626 254.197 179.969 260.308 167.527L256.718 165.764ZM229.074 193.896C198.208 209.772 160.316 197.621 144.44 166.755L140.883 168.585C157.77 201.415 198.074 214.34 230.904 197.453L229.074 193.896ZM144.44 166.755C128.564 135.889 140.715 97.9975 171.581 82.1211L169.751 78.5641C136.921 95.4509 123.996 135.755 140.883 168.585L144.44 166.755ZM171.581 82.1211C177.332 79.1631 183.323 77.179 189.368 76.1066L188.669 72.1681C182.235 73.3096 175.862 75.421 169.751 78.5641L171.581 82.1211ZM253.871 163.216C254.825 162.958 255.773 163.275 256.359 163.862C256.908 164.411 257.057 165.075 256.718 165.764L260.308 167.527C261.51 165.08 260.762 162.608 259.187 161.033C257.649 159.495 255.244 158.7 252.825 159.356L253.871 163.216ZM194.445 81.6184C195.743 79.477 195.646 76.9476 194.595 75.0446C193.519 73.0958 191.352 71.6922 188.669 72.1681L189.368 76.1066C190.123 75.9728 190.719 76.2986 191.094 76.978C191.494 77.7032 191.536 78.7006 191.025 79.5445L194.445 81.6184Z" fill="url(#paint1_linear_2_300)" mask="url(#path-1-inside-1_2_300)"/>
</g>
<mask id="mask0_2_300" style="mask-type:alpha" maskUnits="userSpaceOnUse" x="162" y="156" width="118" height="85">
<path d="M280 182C280 214.585 253.585 241 221 241C188.415 241 162 214.585 162 182C162 149.415 183.915 157 216.5 157C249.085 157 280 149.415 280 182Z" fill="url(#paint2_linear_2_300)"/>
</mask>
<g mask="url(#mask0_2_300)">
<g filter="url(#filter1_f_2_300)">
<path fill-rule="evenodd" clip-rule="evenodd" d="M116.502 332.997C116.335 332.999 116.168 333 116 333C92.2518 333 73 313.748 73 290C73 266.252 92.2518 247 116 247C136.47 247 153.6 261.304 157.938 280.462L172.5 262L218 247H267.5V247.003C267.666 247.001 267.833 247 268 247C291.748 247 311 266.252 311 290C311 313.748 291.748 333 268 333C267.833 333 267.666 332.999 267.5 332.997V333H116.5L116.502 332.997Z" fill="#E18700"/>
</g>
</g>
<g filter="url(#filter2_bd_2_300)">
<mask id="path-5-inside-2_2_300" fill="white">
<path fill-rule="evenodd" clip-rule="evenodd" d="M242.5 337.997C242.666 337.999 242.833 338 243 338C266.748 338 286 318.748 286 295C286 271.252 266.748 252 243 252C242.833 252 242.666 252.001 242.5 252.003V252H231.391C231.793 249.057 232 246.053 232 243C232 206.549 202.451 177 166 177C129.549 177 100 206.549 100 243C100 246.439 100.263 249.817 100.77 253.115C97.6314 252.386 94.3607 252 91 252C67.2518 252 48 271.252 48 295C48 318.748 67.2518 338 91 338C91.1676 338 91.3351 337.999 91.5023 337.997L91.5 338H242.5V337.997Z"/>
</mask>
<path fill-rule="evenodd" clip-rule="evenodd" d="M242.5 337.997C242.666 337.999 242.833 338 243 338C266.748 338 286 318.748 286 295C286 271.252 266.748 252 243 252C242.833 252 242.666 252.001 242.5 252.003V252H231.391C231.793 249.057 232 246.053 232 243C232 206.549 202.451 177 166 177C129.549 177 100 206.549 100 243C100 246.439 100.263 249.817 100.77 253.115C97.6314 252.386 94.3607 252 91 252C67.2518 252 48 271.252 48 295C48 318.748 67.2518 338 91 338C91.1676 338 91.3351 337.999 91.5023 337.997L91.5 338H242.5V337.997Z" fill="url(#paint3_linear_2_300)" shape-rendering="crispEdges"/>
<path d="M242.5 337.997L242.523 335.997C241.988 335.991 241.474 336.199 241.094 336.575C240.714 336.951 240.5 337.463 240.5 337.997H242.5ZM242.5 252.003H240.5C240.5 252.537 240.714 253.049 241.094 253.425C241.474 253.801 241.988 254.009 242.523 254.003L242.5 252.003ZM242.5 252H244.5C244.5 250.895 243.605 250 242.5 250V252ZM231.391 252L229.41 251.73C229.332 252.302 229.505 252.88 229.885 253.315C230.265 253.75 230.814 254 231.391 254V252ZM100.77 253.115L100.318 255.063C100.964 255.213 101.643 255.033 102.13 254.582C102.617 254.13 102.848 253.467 102.747 252.811L100.77 253.115ZM91.5023 337.997L93.0717 339.237C93.5494 338.632 93.6371 337.807 93.2972 337.115C92.9572 336.423 92.2501 335.988 91.4795 335.997L91.5023 337.997ZM91.5 338L89.9306 336.76C89.4554 337.362 89.3659 338.182 89.7001 338.872C90.0343 339.562 90.7334 340 91.5 340V338ZM242.5 338V340C243.605 340 244.5 339.105 244.5 338H242.5ZM242.477 339.997C242.651 339.999 242.825 340 243 340V336C242.841 336 242.682 335.999 242.523 335.997L242.477 339.997ZM243 340C267.853 340 288 319.853 288 295H284C284 317.644 265.644 336 243 336V340ZM288 295C288 270.147 267.853 250 243 250V254C265.644 254 284 272.356 284 295H288ZM243 250C242.826 250 242.651 250.001 242.477 250.003L242.523 254.003C242.682 254.001 242.841 254 243 254V250ZM240.5 252V252.003H244.5V252H240.5ZM231.391 254H242.5V250H231.391V254ZM233.373 252.27C233.787 249.238 234 246.143 234 243H230C230 245.962 229.799 248.876 229.41 251.73L233.373 252.27ZM234 243C234 205.445 203.555 175 166 175V179C201.346 179 230 207.654 230 243H234ZM166 175C128.445 175 98 205.445 98 243H102C102 207.654 130.654 179 166 179V175ZM98 243C98 246.542 98.2709 250.021 98.7935 253.419L102.747 252.811C102.255 249.614 102 246.337 102 243H98ZM101.223 251.167C97.9367 250.403 94.5142 250 91 250V254C94.2073 254 97.3261 254.368 100.318 255.063L101.223 251.167ZM91 250C66.1472 250 46 270.147 46 295H50C50 272.356 68.3563 254 91 254V250ZM46 295C46 319.853 66.1472 340 91 340V336C68.3563 336 50 317.644 50 295H46ZM91 340C91.1753 340 91.3503 339.999 91.5251 339.997L91.4795 335.997C91.3198 335.999 91.16 336 91 336V340ZM93.0694 339.24L93.0717 339.237L89.9328 336.757L89.9306 336.76L93.0694 339.24ZM242.5 336H91.5V340H242.5V336ZM240.5 337.997V338H244.5V337.997H240.5Z" fill="url(#paint4_linear_2_300)" mask="url(#path-5-inside-2_2_300)"/>
</g>
<g filter="url(#filter3_bd_2_300)">
<mask id="path-7-inside-3_2_300" fill="white">
<path fill-rule="evenodd" clip-rule="evenodd" d="M320.563 293.351C320.683 293.352 320.804 293.353 320.924 293.353C338.087 293.353 352 279.44 352 262.277C352 245.115 338.087 231.202 320.924 231.202C320.804 231.202 320.683 231.202 320.563 231.204V231.202H312.535C312.825 229.075 312.975 226.904 312.975 224.697C312.975 198.355 291.62 177 265.277 177C238.935 177 217.58 198.355 217.58 224.697C217.58 227.183 217.77 229.624 218.136 232.007C215.868 231.48 213.504 231.202 211.076 231.202C193.913 231.202 180 245.115 180 262.277C180 279.44 193.913 293.353 211.076 293.353C211.197 293.353 211.318 293.352 211.439 293.351L211.437 293.353H320.563V293.351Z"/>
</mask>
<path fill-rule="evenodd" clip-rule="evenodd" d="M320.563 293.351C320.683 293.352 320.804 293.353 320.924 293.353C338.087 293.353 352 279.44 352 262.277C352 245.115 338.087 231.202 320.924 231.202C320.804 231.202 320.683 231.202 320.563 231.204V231.202H312.535C312.825 229.075 312.975 226.904 312.975 224.697C312.975 198.355 291.62 177 265.277 177C238.935 177 217.58 198.355 217.58 224.697C217.58 227.183 217.77 229.624 218.136 232.007C215.868 231.48 213.504 231.202 211.076 231.202C193.913 231.202 180 245.115 180 262.277C180 279.44 193.913 293.353 211.076 293.353C211.197 293.353 211.318 293.352 211.439 293.351L211.437 293.353H320.563V293.351Z" fill="url(#paint5_linear_2_300)" shape-rendering="crispEdges"/>
<path d="M320.563 293.351L320.586 291.351C320.052 291.345 319.537 291.553 319.157 291.929C318.777 292.304 318.563 292.816 318.563 293.351H320.563ZM320.563 231.204H318.563C318.563 231.738 318.777 232.25 319.157 232.626C319.537 233.002 320.051 233.21 320.586 233.204L320.563 231.204ZM320.563 231.202H322.563C322.563 230.097 321.668 229.202 320.563 229.202V231.202ZM312.535 231.202L310.553 230.931C310.475 231.504 310.649 232.082 311.028 232.517C311.408 232.952 311.957 233.202 312.535 233.202V231.202ZM218.136 232.007L217.684 233.955C218.33 234.106 219.009 233.925 219.496 233.474C219.983 233.023 220.214 232.359 220.113 231.703L218.136 232.007ZM211.439 293.351L213.008 294.59C213.486 293.985 213.573 293.16 213.233 292.468C212.893 291.777 212.186 291.342 211.416 291.351L211.439 293.351ZM211.437 293.353L209.867 292.114C209.392 292.715 209.303 293.535 209.637 294.225C209.971 294.915 210.67 295.353 211.437 295.353V293.353ZM320.563 293.353V295.353C321.668 295.353 322.563 294.458 322.563 293.353H320.563ZM320.54 295.351C320.668 295.352 320.796 295.353 320.924 295.353V291.353C320.811 291.353 320.699 291.352 320.586 291.351L320.54 295.351ZM320.924 295.353C339.192 295.353 354 280.544 354 262.277H350C350 278.335 336.982 291.353 320.924 291.353V295.353ZM354 262.277C354 244.01 339.192 229.202 320.924 229.202V233.202C336.982 233.202 350 246.219 350 262.277H354ZM320.924 229.202C320.796 229.202 320.668 229.202 320.54 229.204L320.586 233.204C320.699 233.202 320.811 233.202 320.924 233.202V229.202ZM318.563 231.202V231.204H322.563V231.202H318.563ZM312.535 233.202H320.563V229.202H312.535V233.202ZM314.517 231.472C314.819 229.256 314.975 226.994 314.975 224.697H310.975C310.975 226.813 310.831 228.894 310.553 230.931L314.517 231.472ZM314.975 224.697C314.975 197.25 292.724 175 265.277 175V179C290.515 179 310.975 199.459 310.975 224.697H314.975ZM265.277 175C237.83 175 215.58 197.25 215.58 224.697H219.58C219.58 199.459 240.039 179 265.277 179V175ZM215.58 224.697C215.58 227.285 215.778 229.828 216.16 232.311L220.113 231.703C219.762 229.421 219.58 227.081 219.58 224.697H215.58ZM218.589 230.059C216.173 229.498 213.658 229.202 211.076 229.202V233.202C213.351 233.202 215.563 233.463 217.684 233.955L218.589 230.059ZM211.076 229.202C192.808 229.202 178 244.01 178 262.277H182C182 246.219 195.018 233.202 211.076 233.202V229.202ZM178 262.277C178 280.544 192.808 295.353 211.076 295.353V291.353C195.018 291.353 182 278.335 182 262.277H178ZM211.076 295.353C211.204 295.353 211.333 295.352 211.461 295.351L211.416 291.351C211.303 291.352 211.189 291.353 211.076 291.353V295.353ZM213.007 294.592L213.008 294.59L209.869 292.112L209.867 292.114L213.007 294.592ZM320.563 291.353H211.437V295.353H320.563V291.353ZM318.563 293.351V293.353H322.563V293.351H318.563Z" fill="url(#paint6_linear_2_300)" mask="url(#path-7-inside-3_2_300)"/>
</g>
</g>
<defs>
<filter id="filter0_bdd_2_300" x="64.4666" y="36.0762" width="232.434" height="231.793" filterUnits="userSpaceOnUse" color-interpolation-filters="sRGB">
<feFlood flood-opacity="0" result="BackgroundImageFix"/>
<feGaussianBlur in="BackgroundImageFix" stdDeviation="7"/>
<feComposite in2="SourceAlpha" operator="in" result="effect1_backgroundBlur_2_300"/>
<feColorMatrix in="SourceAlpha" type="matrix" values="0 0 0 0 0 0 0 0 0 0 0 0 0 0 0 0 0 0 127 0" result="hardAlpha"/>
<feOffset dx="-21" dy="15"/>
<feGaussianBlur stdDeviation="25"/>
<feComposite in2="hardAlpha" operator="out"/>
<feColorMatrix type="matrix" values="0 0 0 0 0.113438 0 0 0 0 0.148981 0 0 0 0 0.275 0 0 0 0.25 0"/>
<feBlend mode="normal" in2="effect1_backgroundBlur_2_300" result="effect2_dropShadow_2_300"/>
<feColorMatrix in="SourceAlpha" type="matrix" values="0 0 0 0 0 0 0 0 0 0 0 0 0 0 0 0 0 0 127 0" result="hardAlpha"/>
<feOffset/>
<feGaussianBlur stdDeviation="19"/>
<feComposite in2="hardAlpha" operator="out"/>
<feColorMatrix type="matrix" values="0 0 0 0 0.619608 0 0 0 0 0.423529 0 0 0 0 1 0 0 0 0.4 0"/>
<feBlend mode="normal" in2="effect2_dropShadow_2_300" result="effect3_dropShadow_2_300"/>
<feBlend mode="normal" in="SourceGraphic" in2="effect3_dropShadow_2_300" result="shape"/>
</filter>
<filter id="filter1_f_2_300" x="59" y="233" width="266" height="114" filterUnits="userSpaceOnUse" color-interpolation-filters="sRGB">
<feFlood flood-opacity="0" result="BackgroundImageFix"/>
<feBlend mode="normal" in="SourceGraphic" in2="BackgroundImageFix" result="shape"/>
<feGaussianBlur stdDeviation="7" result="effect1_foregroundBlur_2_300"/>
</filter>
<filter id="filter2_bd_2_300" x="-23" y="142" width="338" height="261" filterUnits="userSpaceOnUse" color-interpolation-filters="sRGB">
<feFlood flood-opacity="0" result="BackgroundImageFix"/>
<feGaussianBlur in="BackgroundImageFix" stdDeviation="7"/>
<feComposite in2="SourceAlpha" operator="in" result="effect1_backgroundBlur_2_300"/>
<feColorMatrix in="SourceAlpha" type="matrix" values="0 0 0 0 0 0 0 0 0 0 0 0 0 0 0 0 0 0 127 0" result="hardAlpha"/>
<feOffset dx="-21" dy="15"/>
<feGaussianBlur stdDeviation="25"/>
<feComposite in2="hardAlpha" operator="out"/>
<feColorMatrix type="matrix" values="0 0 0 0 0.113725 0 0 0 0 0.14902 0 0 0 0 0.27451 0 0 0 0.25 0"/>
<feBlend mode="normal" in2="effect1_backgroundBlur_2_300" result="effect2_dropShadow_2_300"/>
<feBlend mode="normal" in="SourceGraphic" in2="effect2_dropShadow_2_300" result="shape"/>
</filter>
<filter id="filter3_bd_2_300" x="109" y="142" width="272" height="216.353" filterUnits="userSpaceOnUse" color-interpolation-filters="sRGB">
<feFlood flood-opacity="0" result="BackgroundImageFix"/>
<feGaussianBlur in="BackgroundImageFix" stdDeviation="7"/>
<feComposite in2="SourceAlpha" operator="in" result="effect1_backgroundBlur_2_300"/>
<feColorMatrix in="SourceAlpha" type="matrix" values="0 0 0 0 0 0 0 0 0 0 0 0 0 0 0 0 0 0 127 0" result="hardAlpha"/>
<feOffset dx="-21" dy="15"/>
<feGaussianBlur stdDeviation="25"/>
<feComposite in2="hardAlpha" operator="out"/>
<feColorMatrix type="matrix" values="0 0 0 0 0.113438 0 0 0 0 0.148981 0 0 0 0 0.275 0 0 0 0.25 0"/>
<feBlend mode="normal" in2="effect1_backgroundBlur_2_300" result="effect2_dropShadow_2_300"/>
<feBlend mode="normal" in="SourceGraphic" in2="effect2_dropShadow_2_300" result="shape"/>
</filter>
<linearGradient id="paint0_linear_2_300" x1="158.067" y1="88.1079" x2="217.39" y2="203.44" gradientUnits="userSpaceOnUse">
<stop offset="0.0001" stop-color="#D4C0FF"/>
<stop offset="1" stop-color="#7E2FFF"/>
</linearGradient>
<linearGradient id="paint1_linear_2_300" x1="164.197" y1="24.86" x2="200.703" y2="176.225" gradientUnits="userSpaceOnUse">
<stop stop-color="white"/>
<stop offset="1" stop-color="white" stop-opacity="0"/>
</linearGradient>
<linearGradient id="paint2_linear_2_300" x1="221" y1="123" x2="221" y2="241" gradientUnits="userSpaceOnUse">
<stop stop-color="#FFD600"/>
<stop offset="1" stop-color="#FF7A00"/>
</linearGradient>
<linearGradient id="paint3_linear_2_300" x1="167" y1="125.5" x2="167" y2="360.5" gradientUnits="userSpaceOnUse">
<stop stop-color="white"/>
<stop offset="1" stop-color="white" stop-opacity="0"/>
</linearGradient>
<linearGradient id="paint4_linear_2_300" x1="167" y1="177" x2="167" y2="338" gradientUnits="userSpaceOnUse">
<stop stop-color="white"/>
<stop offset="1" stop-color="white" stop-opacity="0"/>
</linearGradient>
<linearGradient id="paint5_linear_2_300" x1="274" y1="180.5" x2="274" y2="306.5" gradientUnits="userSpaceOnUse">
<stop stop-color="white"/>
<stop offset="1" stop-color="white" stop-opacity="0"/>
</linearGradient>
<linearGradient id="paint6_linear_2_300" x1="266" y1="177" x2="266" y2="293.353" gradientUnits="userSpaceOnUse">
<stop stop-color="white"/>
<stop offset="1" stop-color="white" stop-opacity="0"/>
</linearGradient>
<clipPath id="clip0_2_300">
<rect width="400" height="400" fill="white"/>
</clipPath>
</defs>
</svg>
