<svg width="400" height="400" viewBox="0 0 400 400" fill="none" xmlns="http://www.w3.org/2000/svg">
<g clip-path="url(#clip0_2_148)">
<g filter="url(#filter0_bdd_2_148)">
<path d="M124.617 250.541L172.431 163.041C172.782 162.399 173.455 162 174.186 162H221.195C222.698 162 223.664 163.596 222.966 164.928L193.034 222.072C192.336 223.404 193.302 225 194.805 225H231.527C233.256 225 234.17 227.045 233.017 228.334L132.581 340.585C131.107 342.233 128.443 340.623 129.217 338.552L159.991 256.2C160.479 254.893 159.513 253.5 158.118 253.5H126.372C124.853 253.5 123.889 251.874 124.617 250.541Z" fill="url(#paint0_linear_2_148)"/>
<path d="M125.494 251.02L173.309 163.52C173.484 163.2 173.821 163 174.186 163H221.195C221.946 163 222.429 163.798 222.08 164.464L192.148 221.608C191.102 223.605 192.55 226 194.805 226H231.527C232.391 226 232.848 227.023 232.272 227.667L131.836 339.919C131.099 340.743 129.767 339.938 130.154 338.902L160.928 256.55C161.66 254.589 160.211 252.5 158.118 252.5H126.372C125.613 252.5 125.13 251.687 125.494 251.02Z" stroke="url(#paint1_linear_2_148)" stroke-width="2"/>
</g>
<g filter="url(#filter1_bd_2_148)">
<mask id="path-3-inside-1_2_148" fill="white">
<path fill-rule="evenodd" clip-rule="evenodd" d="M242.5 212.997C242.666 212.999 242.833 213 243 213C266.748 213 286 193.748 286 170C286 146.252 266.748 127 243 127C242.833 127 242.666 127.001 242.5 127.003V127H231.391C231.793 124.057 232 121.053 232 118C232 81.5492 202.451 52 166 52C129.549 52 100 81.5492 100 118C100 121.439 100.263 124.817 100.77 128.115C97.6314 127.386 94.3607 127 91 127C67.2518 127 48 146.252 48 170C48 193.748 67.2518 213 91 213C91.1676 213 91.3351 212.999 91.5023 212.997L91.5 213H242.5V212.997Z"/>
</mask>
<path fill-rule="evenodd" clip-rule="evenodd" d="M242.5 212.997C242.666 212.999 242.833 213 243 213C266.748 213 286 193.748 286 170C286 146.252 266.748 127 243 127C242.833 127 242.666 127.001 242.5 127.003V127H231.391C231.793 124.057 232 121.053 232 118C232 81.5492 202.451 52 166 52C129.549 52 100 81.5492 100 118C100 121.439 100.263 124.817 100.77 128.115C97.6314 127.386 94.3607 127 91 127C67.2518 127 48 146.252 48 170C48 193.748 67.2518 213 91 213C91.1676 213 91.3351 212.999 91.5023 212.997L91.5 213H242.5V212.997Z" fill="url(#paint2_linear_2_148)" shape-rendering="crispEdges"/>
<path d="M242.5 212.997L242.523 210.997C241.988 210.991 241.474 211.199 241.094 211.575C240.714 211.951 240.5 212.463 240.5 212.997H242.5ZM242.5 127.003H240.5C240.5 127.537 240.714 128.049 241.094 128.425C241.474 128.801 241.988 129.009 242.523 129.003L242.5 127.003ZM242.5 127H244.5C244.5 125.895 243.605 125 242.5 125V127ZM231.391 127L229.41 126.73C229.332 127.302 229.505 127.88 229.885 128.315C230.265 128.75 230.814 129 231.391 129V127ZM100.77 128.115L100.318 130.063C100.964 130.213 101.643 130.033 102.13 129.582C102.617 129.13 102.848 128.467 102.747 127.811L100.77 128.115ZM91.5023 212.997L93.0717 214.237C93.5494 213.632 93.6371 212.807 93.2972 212.115C92.9572 211.423 92.2501 210.988 91.4795 210.997L91.5023 212.997ZM91.5 213L89.9306 211.76C89.4554 212.362 89.3659 213.182 89.7001 213.872C90.0343 214.562 90.7334 215 91.5 215V213ZM242.5 213V215C243.605 215 244.5 214.105 244.5 213H242.5ZM242.477 214.997C242.651 214.999 242.825 215 243 215V211C242.841 211 242.682 210.999 242.523 210.997L242.477 214.997ZM243 215C267.853 215 288 194.853 288 170H284C284 192.644 265.644 211 243 211V215ZM288 170C288 145.147 267.853 125 243 125V129C265.644 129 284 147.356 284 170H288ZM243 125C242.826 125 242.651 125.001 242.477 125.003L242.523 129.003C242.682 129.001 242.841 129 243 129V125ZM240.5 127V127.003H244.5V127H240.5ZM231.391 129H242.5V125H231.391V129ZM233.373 127.27C233.787 124.238 234 121.143 234 118H230C230 120.962 229.799 123.876 229.41 126.73L233.373 127.27ZM234 118C234 80.4446 203.555 50 166 50V54C201.346 54 230 82.6538 230 118H234ZM166 50C128.445 50 98 80.4446 98 118H102C102 82.6538 130.654 54 166 54V50ZM98 118C98 121.542 98.2709 125.021 98.7935 128.419L102.747 127.811C102.255 124.614 102 121.337 102 118H98ZM101.223 126.167C97.9367 125.403 94.5142 125 91 125V129C94.2073 129 97.3261 129.368 100.318 130.063L101.223 126.167ZM91 125C66.1472 125 46 145.147 46 170H50C50 147.356 68.3563 129 91 129V125ZM46 170C46 194.853 66.1472 215 91 215V211C68.3563 211 50 192.644 50 170H46ZM91 215C91.1753 215 91.3503 214.999 91.5251 214.997L91.4795 210.997C91.3198 210.999 91.16 211 91 211V215ZM93.0694 214.24L93.0717 214.237L89.9328 211.757L89.9306 211.76L93.0694 214.24ZM242.5 211H91.5V215H242.5V211ZM240.5 212.997V213H244.5V212.997H240.5Z" fill="url(#paint3_linear_2_148)" mask="url(#path-3-inside-1_2_148)"/>
</g>
<g filter="url(#filter2_bd_2_148)">
<mask id="path-5-inside-2_2_148" fill="white">
<path fill-rule="evenodd" clip-rule="evenodd" d="M320.563 168.351C320.683 168.352 320.804 168.353 320.924 168.353C338.087 168.353 352 154.44 352 137.277C352 120.115 338.087 106.202 320.924 106.202C320.804 106.202 320.683 106.202 320.563 106.204V106.202H312.535C312.825 104.075 312.975 101.904 312.975 99.6975C312.975 73.3549 291.62 52 265.277 52C238.935 52 217.58 73.3549 217.58 99.6975C217.58 102.183 217.77 104.624 218.136 107.007C215.868 106.48 213.504 106.202 211.076 106.202C193.913 106.202 180 120.115 180 137.277C180 154.44 193.913 168.353 211.076 168.353C211.197 168.353 211.318 168.352 211.439 168.351L211.437 168.353H320.563V168.351Z"/>
</mask>
<path fill-rule="evenodd" clip-rule="evenodd" d="M320.563 168.351C320.683 168.352 320.804 168.353 320.924 168.353C338.087 168.353 352 154.44 352 137.277C352 120.115 338.087 106.202 320.924 106.202C320.804 106.202 320.683 106.202 320.563 106.204V106.202H312.535C312.825 104.075 312.975 101.904 312.975 99.6975C312.975 73.3549 291.62 52 265.277 52C238.935 52 217.58 73.3549 217.58 99.6975C217.58 102.183 217.77 104.624 218.136 107.007C215.868 106.48 213.504 106.202 211.076 106.202C193.913 106.202 180 120.115 180 137.277C180 154.44 193.913 168.353 211.076 168.353C211.197 168.353 211.318 168.352 211.439 168.351L211.437 168.353H320.563V168.351Z" fill="url(#paint4_linear_2_148)" shape-rendering="crispEdges"/>
<path d="M320.563 168.351L320.586 166.351C320.052 166.345 319.537 166.553 319.157 166.929C318.777 167.304 318.563 167.816 318.563 168.351H320.563ZM320.563 106.204H318.563C318.563 106.738 318.777 107.25 319.157 107.626C319.537 108.002 320.051 108.21 320.586 108.204L320.563 106.204ZM320.563 106.202H322.563C322.563 105.097 321.668 104.202 320.563 104.202V106.202ZM312.535 106.202L310.553 105.931C310.475 106.504 310.649 107.082 311.028 107.517C311.408 107.952 311.957 108.202 312.535 108.202V106.202ZM218.136 107.007L217.684 108.955C218.33 109.106 219.009 108.925 219.496 108.474C219.983 108.023 220.214 107.359 220.113 106.703L218.136 107.007ZM211.439 168.351L213.008 169.59C213.486 168.985 213.573 168.16 213.233 167.468C212.893 166.777 212.186 166.342 211.416 166.351L211.439 168.351ZM211.437 168.353L209.867 167.114C209.392 167.715 209.303 168.535 209.637 169.225C209.971 169.915 210.67 170.353 211.437 170.353V168.353ZM320.563 168.353V170.353C321.668 170.353 322.563 169.458 322.563 168.353H320.563ZM320.54 170.351C320.668 170.352 320.796 170.353 320.924 170.353V166.353C320.811 166.353 320.699 166.352 320.586 166.351L320.54 170.351ZM320.924 170.353C339.192 170.353 354 155.544 354 137.277H350C350 153.335 336.982 166.353 320.924 166.353V170.353ZM354 137.277C354 119.01 339.192 104.202 320.924 104.202V108.202C336.982 108.202 350 121.219 350 137.277H354ZM320.924 104.202C320.796 104.202 320.668 104.202 320.54 104.204L320.586 108.204C320.699 108.202 320.811 108.202 320.924 108.202V104.202ZM318.563 106.202V106.204H322.563V106.202H318.563ZM312.535 108.202H320.563V104.202H312.535V108.202ZM314.517 106.472C314.819 104.256 314.975 101.994 314.975 99.6975H310.975C310.975 101.813 310.831 103.894 310.553 105.931L314.517 106.472ZM314.975 99.6975C314.975 72.2503 292.724 50 265.277 50V54C290.515 54 310.975 74.4595 310.975 99.6975H314.975ZM265.277 50C237.83 50 215.58 72.2503 215.58 99.6975H219.58C219.58 74.4595 240.039 54 265.277 54V50ZM215.58 99.6975C215.58 102.285 215.778 104.828 216.16 107.311L220.113 106.703C219.762 104.421 219.58 102.081 219.58 99.6975H215.58ZM218.589 105.059C216.173 104.498 213.658 104.202 211.076 104.202V108.202C213.351 108.202 215.563 108.463 217.684 108.955L218.589 105.059ZM211.076 104.202C192.808 104.202 178 119.01 178 137.277H182C182 121.219 195.018 108.202 211.076 108.202V104.202ZM178 137.277C178 155.544 192.808 170.353 211.076 170.353V166.353C195.018 166.353 182 153.335 182 137.277H178ZM211.076 170.353C211.204 170.353 211.333 170.352 211.461 170.351L211.416 166.351C211.303 166.352 211.189 166.353 211.076 166.353V170.353ZM213.007 169.592L213.008 169.59L209.869 167.112L209.867 167.114L213.007 169.592ZM320.563 166.353H211.437V170.353H320.563V166.353ZM318.563 168.351V168.353H322.563V168.351H318.563Z" fill="url(#paint5_linear_2_148)" mask="url(#path-5-inside-2_2_148)"/>
</g>
</g>
<defs>
<filter id="filter0_bdd_2_148" x="53.3692" y="101" width="241.162" height="305.265" filterUnits="userSpaceOnUse" color-interpolation-filters="sRGB">
<feFlood flood-opacity="0" result="BackgroundImageFix"/>
<feGaussianBlur in="BackgroundImageFix" stdDeviation="7"/>
<feComposite in2="SourceAlpha" operator="in" result="effect1_backgroundBlur_2_148"/>
<feColorMatrix in="SourceAlpha" type="matrix" values="0 0 0 0 0 0 0 0 0 0 0 0 0 0 0 0 0 0 127 0" result="hardAlpha"/>
<feOffset dx="-21" dy="15"/>
<feGaussianBlur stdDeviation="25"/>
<feComposite in2="hardAlpha" operator="out"/>
<feColorMatrix type="matrix" values="0 0 0 0 0.113438 0 0 0 0 0.148981 0 0 0 0 0.275 0 0 0 0.25 0"/>
<feBlend mode="normal" in2="effect1_backgroundBlur_2_148" result="effect2_dropShadow_2_148"/>
<feColorMatrix in="SourceAlpha" type="matrix" values="0 0 0 0 0 0 0 0 0 0 0 0 0 0 0 0 0 0 127 0" result="hardAlpha"/>
<feOffset/>
<feGaussianBlur stdDeviation="30.5"/>
<feComposite in2="hardAlpha" operator="out"/>
<feColorMatrix type="matrix" values="0 0 0 0 1 0 0 0 0 0.721569 0 0 0 0 0.00392157 0 0 0 0.49 0"/>
<feBlend mode="normal" in2="effect2_dropShadow_2_148" result="effect3_dropShadow_2_148"/>
<feBlend mode="normal" in="SourceGraphic" in2="effect3_dropShadow_2_148" result="shape"/>
</filter>
<filter id="filter1_bd_2_148" x="-23" y="17" width="338" height="261" filterUnits="userSpaceOnUse" color-interpolation-filters="sRGB">
<feFlood flood-opacity="0" result="BackgroundImageFix"/>
<feGaussianBlur in="BackgroundImageFix" stdDeviation="7"/>
<feComposite in2="SourceAlpha" operator="in" result="effect1_backgroundBlur_2_148"/>
<feColorMatrix in="SourceAlpha" type="matrix" values="0 0 0 0 0 0 0 0 0 0 0 0 0 0 0 0 0 0 127 0" result="hardAlpha"/>
<feOffset dx="-21" dy="15"/>
<feGaussianBlur stdDeviation="25"/>
<feComposite in2="hardAlpha" operator="out"/>
<feColorMatrix type="matrix" values="0 0 0 0 0.113725 0 0 0 0 0.14902 0 0 0 0 0.27451 0 0 0 0.25 0"/>
<feBlend mode="normal" in2="effect1_backgroundBlur_2_148" result="effect2_dropShadow_2_148"/>
<feBlend mode="normal" in="SourceGraphic" in2="effect2_dropShadow_2_148" result="shape"/>
</filter>
<filter id="filter2_bd_2_148" x="109" y="17" width="272" height="216.353" filterUnits="userSpaceOnUse" color-interpolation-filters="sRGB">
<feFlood flood-opacity="0" result="BackgroundImageFix"/>
<feGaussianBlur in="BackgroundImageFix" stdDeviation="7"/>
<feComposite in2="SourceAlpha" operator="in" result="effect1_backgroundBlur_2_148"/>
<feColorMatrix in="SourceAlpha" type="matrix" values="0 0 0 0 0 0 0 0 0 0 0 0 0 0 0 0 0 0 127 0" result="hardAlpha"/>
<feOffset dx="-21" dy="15"/>
<feGaussianBlur stdDeviation="25"/>
<feComposite in2="hardAlpha" operator="out"/>
<feColorMatrix type="matrix" values="0 0 0 0 0.113438 0 0 0 0 0.148981 0 0 0 0 0.275 0 0 0 0.25 0"/>
<feBlend mode="normal" in2="effect1_backgroundBlur_2_148" result="effect2_dropShadow_2_148"/>
<feBlend mode="normal" in="SourceGraphic" in2="effect2_dropShadow_2_148" result="shape"/>
</filter>
<linearGradient id="paint0_linear_2_148" x1="190.5" y1="173" x2="165.5" y2="281.5" gradientUnits="userSpaceOnUse">
<stop stop-color="#FF4D00"/>
<stop offset="1" stop-color="#FFB800"/>
</linearGradient>
<linearGradient id="paint1_linear_2_148" x1="157" y1="280" x2="202.5" y2="182.5" gradientUnits="userSpaceOnUse">
<stop stop-color="white"/>
<stop offset="1" stop-color="white" stop-opacity="0"/>
</linearGradient>
<linearGradient id="paint2_linear_2_148" x1="167" y1="0.500002" x2="167" y2="235.5" gradientUnits="userSpaceOnUse">
<stop stop-color="white"/>
<stop offset="1" stop-color="white" stop-opacity="0"/>
</linearGradient>
<linearGradient id="paint3_linear_2_148" x1="167" y1="52" x2="167" y2="213" gradientUnits="userSpaceOnUse">
<stop stop-color="white"/>
<stop offset="1" stop-color="white" stop-opacity="0"/>
</linearGradient>
<linearGradient id="paint4_linear_2_148" x1="274" y1="55.5" x2="274" y2="181.5" gradientUnits="userSpaceOnUse">
<stop stop-color="white"/>
<stop offset="1" stop-color="white" stop-opacity="0"/>
</linearGradient>
<linearGradient id="paint5_linear_2_148" x1="266" y1="52" x2="266" y2="168.353" gradientUnits="userSpaceOnUse">
<stop stop-color="white"/>
<stop offset="1" stop-color="white" stop-opacity="0"/>
</linearGradient>
<clipPath id="clip0_2_148">
<rect width="400" height="400" fill="white"/>
</clipPath>
</defs>
</svg>
