<svg xmlns="http://www.w3.org/2000/svg" xmlns:xlink="http://www.w3.org/1999/xlink" width="400" height="400" viewBox="0 0 400 400">
  <defs>
    <linearGradient id="linear-gradient" x1="0.5" x2="0.5" y2="1" gradientUnits="objectBoundingBox">
      <stop offset="0" stop-color="#138eff"/>
      <stop offset="1" stop-color="#00e0ff"/>
    </linearGradient>
  </defs>
  <g id="snow" transform="translate(-30 -73)">
    <path id="Icon_ionic-ios-snow" data-name="Icon ionic-ios-snow" d="M307.029,242.61,281,227.507a69.893,69.893,0,0,1,21.048-14.7,12.425,12.425,0,0,0,7.15-15.344,11.381,11.381,0,0,0-10.845-7.873,12.038,12.038,0,0,0-4.418.884c-.8.321-19.6,8.033-33.66,25.064l-77.362-44.987,77.362-44.987a93.145,93.145,0,0,0,33.66,25.064,12.038,12.038,0,0,0,4.418.884,11.485,11.485,0,0,0,10.845-7.873,12.425,12.425,0,0,0-7.15-15.344A72.064,72.064,0,0,1,281,113.594l26.028-15.1a12.155,12.155,0,0,0-6.105-22.654,12.6,12.6,0,0,0-6.105,1.607l-25.868,15.1a72.265,72.265,0,0,1-2.089-25.707,12.413,12.413,0,0,0-9.64-13.9,12.261,12.261,0,0,0-2.41-.241,11.488,11.488,0,0,0-11.327,9.961,93.454,93.454,0,0,0,4.9,41.934l-77.121,44.987V69.892c21.61-3.776,37.6-16.228,38.319-16.79a11.5,11.5,0,0,0,1.446-16.71,12.352,12.352,0,0,0-9.158-4.1,12.569,12.569,0,0,0-7.632,2.651,69.716,69.716,0,0,1-22.976,10.925V15.505a12.456,12.456,0,0,0-24.9,0V45.631a71.818,71.818,0,0,1-22.976-10.925,12.3,12.3,0,0,0-16.79,1.446,11.487,11.487,0,0,0,1.446,16.71c.723.562,16.71,13.014,38.319,16.79v79.692L69.24,104.355a94.012,94.012,0,0,0,4.82-41.934,11.348,11.348,0,0,0-11.247-9.961A12.207,12.207,0,0,0,50.763,66.6a72.006,72.006,0,0,1-2.089,25.627L22.726,77.283a12.374,12.374,0,0,0-6.105-1.607A12.155,12.155,0,0,0,10.516,98.33l26.028,15.1a70.959,70.959,0,0,1-21.048,14.7,12.425,12.425,0,0,0-7.15,15.344,11.381,11.381,0,0,0,10.845,7.873,12.039,12.039,0,0,0,4.418-.884c.8-.321,19.6-8.033,33.66-25.064l77.362,44.987L57.27,215.377a93.146,93.146,0,0,0-33.66-25.064,12.038,12.038,0,0,0-4.418-.884A11.485,11.485,0,0,0,8.346,197.3a12.46,12.46,0,0,0,7.15,15.344,70.96,70.96,0,0,1,21.048,14.7l-26.028,15.1A12.155,12.155,0,0,0,16.621,265.1a12.6,12.6,0,0,0,6.105-1.607l25.948-15.1A72.464,72.464,0,0,1,50.763,274.1a12.208,12.208,0,0,0,12.05,14.139,11.488,11.488,0,0,0,11.327-9.961,93.454,93.454,0,0,0-4.9-41.935l77.121-44.987v79.692c-21.61,3.776-37.6,16.228-38.319,16.79a11.5,11.5,0,0,0-1.446,16.71,12.352,12.352,0,0,0,9.158,4.1,12.569,12.569,0,0,0,7.632-2.651,70.753,70.753,0,0,1,22.976-10.925v30.125a12.456,12.456,0,0,0,24.9,0V295.069a71.819,71.819,0,0,1,22.976,10.925,12.569,12.569,0,0,0,7.632,2.651,12.352,12.352,0,0,0,9.158-4.1,11.487,11.487,0,0,0-1.446-16.71c-.723-.562-16.71-13.014-38.319-16.79V191.357l77.121,44.987a94.013,94.013,0,0,0-4.82,41.935,11.348,11.348,0,0,0,11.247,9.961,12.208,12.208,0,0,0,12.05-14.139,72.324,72.324,0,0,1,2.089-25.707l25.868,15.1a12.374,12.374,0,0,0,6.105,1.607,12.067,12.067,0,0,0,6.105-22.494Z" transform="translate(70.949 102.998)" stroke="rgba(255,255,255,0.74)" stroke-width="2" fill="url(#linear-gradient)"/>
    <rect id="Rectangle_1" data-name="Rectangle 1" width="400" height="400" transform="translate(30 73)" fill="none"/>
  </g>
</svg>
