<svg width="400" height="400" viewBox="0 0 400 400" fill="none" xmlns="http://www.w3.org/2000/svg">
<g filter="url(#filter0_f_3_311)">
<path d="M155.62 212.241C197.937 212.241 232.241 177.937 232.241 135.62C232.241 93.3041 197.937 59 155.62 59C113.304 59 79 93.3041 79 135.62C79 177.937 113.304 212.241 155.62 212.241Z" fill="#FFC701" fill-opacity="0.5"/>
</g>
<path opacity="0.9" d="M134 309.246C134 309.246 135.612 309.246 138.402 309.06C141.192 308.936 145.098 308.812 149.747 308.502C154.397 308.192 159.729 307.758 165.247 306.89C168.036 306.456 170.826 305.898 173.616 305.278C176.406 304.596 179.196 303.728 181.862 302.736L186.635 301.249C188.433 300.877 190.293 300.505 192.029 300.257C195.439 299.885 198.787 299.947 201.949 300.257C208.272 300.939 213.914 302.798 218.44 304.844C222.965 306.952 226.437 309.184 228.731 310.92C231.087 312.656 232.203 313.896 232.203 313.896C232.203 313.896 230.653 313.524 227.863 312.966C225.135 312.408 221.292 311.602 216.766 310.982C212.24 310.362 206.97 309.866 201.577 309.99C200.213 309.99 198.849 310.176 197.485 310.238C196.121 310.362 194.757 310.672 193.393 310.796C192.091 311.044 190.913 311.416 189.611 311.664L185.333 313.09C183.722 313.586 182.048 314.206 180.436 314.64C178.762 315.012 177.15 315.446 175.538 315.694C172.252 316.252 169.028 316.562 165.929 316.562C159.729 316.686 154.025 315.88 149.251 314.764C144.478 313.648 140.634 312.284 138.03 311.168C135.426 310.052 134 309.184 134 309.184V309.246Z" fill="white"/>
<path opacity="0.9" d="M289.488 333.921C289.488 333.921 287.876 333.797 285.086 333.611C282.296 333.363 278.39 333.115 273.741 332.619C269.153 332.123 263.821 331.503 258.303 330.449C255.576 329.891 252.786 329.271 249.996 328.465C247.206 327.659 244.478 326.729 241.812 325.613L237.101 323.939C235.365 323.505 233.505 323.071 231.769 322.761C228.359 322.265 225.011 322.203 221.849 322.389C215.464 322.823 209.822 324.497 205.234 326.357C200.647 328.279 197.051 330.387 194.695 332.061C192.277 333.735 191.099 334.913 191.099 334.913C191.099 334.913 192.711 334.603 195.439 334.107C198.167 333.673 202.073 332.991 206.66 332.557C211.248 332.123 216.456 331.813 221.911 332.123C223.275 332.185 224.639 332.433 226.003 332.557C227.367 332.743 228.731 333.053 230.095 333.239C231.397 333.549 232.575 333.921 233.815 334.231L238.031 335.781C239.643 336.339 241.254 337.021 242.866 337.517C244.478 337.95 246.152 338.446 247.764 338.756C250.988 339.438 254.212 339.81 257.312 339.996C263.511 340.306 269.215 339.748 274.051 338.88C278.824 337.95 282.73 336.711 285.396 335.719C288.062 334.727 289.55 333.921 289.55 333.921H289.488Z" fill="white"/>
<path d="M155.62 211.241C195.997 211.241 228.729 178.509 228.729 138.132C228.729 97.7557 195.997 65.024 155.62 65.024C115.244 65.024 82.512 97.7557 82.512 138.132C82.512 178.509 115.244 211.241 155.62 211.241Z" fill="url(#paint0_linear_3_311)" stroke="url(#paint1_linear_3_311)" stroke-width="2"/>
<mask id="mask0_3_311" style="mask-type:alpha" maskUnits="userSpaceOnUse" x="81" y="105" width="149" height="108">
<path d="M229.729 138.133C229.729 179.061 196.549 212.241 155.62 212.241C114.691 212.241 81.5123 179.061 81.5123 138.133C81.5123 97.2043 109.039 106.731 149.968 106.731C190.897 106.731 229.729 97.2043 229.729 138.133Z" fill="url(#paint2_linear_3_311)"/>
</mask>
<g mask="url(#mask0_3_311)">
<g filter="url(#filter1_f_3_311)">
</g>
</g>
<g filter="url(#filter2_d_3_311)">
<path fill-rule="evenodd" clip-rule="evenodd" d="M280.678 277.997C280.829 277.999 280.981 278 281.133 278C302.69 278 320.166 260.524 320.166 238.967C320.166 217.409 302.69 199.933 281.133 199.933C280.981 199.933 280.829 199.934 280.678 199.936V199.933H270.595C270.959 197.262 271.147 194.535 271.147 191.763C271.147 158.675 244.324 131.852 211.236 131.852C178.147 131.852 151.324 158.675 151.324 191.763C151.324 194.885 151.563 197.952 152.023 200.945C149.174 200.283 146.205 199.933 143.155 199.933C121.597 199.933 104.121 217.409 104.121 238.967C104.121 260.524 121.597 278 143.155 278C143.307 278 143.458 277.999 143.61 277.997L143.608 278H280.678V277.997Z" fill="url(#paint3_linear_3_311)"/>
<mask id="mask1_3_311" style="mask-type:luminance" maskUnits="userSpaceOnUse" x="104" y="131" width="217" height="148">
<path fill-rule="evenodd" clip-rule="evenodd" d="M280.678 277.997C280.829 277.999 280.981 278 281.133 278C302.69 278 320.166 260.524 320.166 238.967C320.166 217.409 302.69 199.933 281.133 199.933C280.981 199.933 280.829 199.934 280.678 199.936V199.933H270.595C270.959 197.262 271.147 194.535 271.147 191.763C271.147 158.675 244.324 131.852 211.236 131.852C178.147 131.852 151.324 158.675 151.324 191.763C151.324 194.885 151.563 197.952 152.023 200.945C149.174 200.283 146.205 199.933 143.155 199.933C121.597 199.933 104.121 217.409 104.121 238.967C104.121 260.524 121.597 278 143.155 278C143.307 278 143.458 277.999 143.61 277.997L143.608 278H280.678V277.997Z" fill="url(#paint4_linear_3_311)"/>
</mask>
<g mask="url(#mask1_3_311)">
<path d="M280.678 277.997L280.701 275.998C280.166 275.991 279.652 276.199 279.272 276.575C278.892 276.951 278.678 277.463 278.678 277.997H280.678ZM280.678 199.936H278.678C278.678 200.47 278.892 200.983 279.272 201.358C279.652 201.734 280.166 201.942 280.701 201.936L280.678 199.936ZM280.678 199.933H282.678C282.678 198.829 281.782 197.933 280.678 197.933V199.933ZM270.595 199.933L268.613 199.663C268.535 200.236 268.708 200.814 269.088 201.249C269.468 201.684 270.017 201.933 270.595 201.933V199.933ZM152.023 200.945L151.571 202.894C152.217 203.044 152.896 202.863 153.383 202.412C153.87 201.961 154.101 201.297 154 200.641L152.023 200.945ZM143.61 277.997L145.179 279.237C145.657 278.632 145.745 277.807 145.405 277.115C145.065 276.424 144.358 275.989 143.587 275.998L143.61 277.997ZM143.608 278L142.038 276.76C141.563 277.362 141.474 278.182 141.808 278.872C142.142 279.562 142.841 280 143.608 280V278ZM280.678 278V280C281.782 280 282.678 279.105 282.678 278H280.678ZM280.655 279.997C280.814 279.999 280.973 280 281.133 280V276C280.988 276 280.844 275.999 280.701 275.998L280.655 279.997ZM281.133 280C303.795 280 322.166 261.629 322.166 238.967H318.166C318.166 259.42 301.586 276 281.133 276V280ZM322.166 238.967C322.166 216.305 303.795 197.933 281.133 197.933V201.933C301.586 201.933 318.166 218.514 318.166 238.967H322.166ZM281.133 197.933C280.973 197.933 280.814 197.934 280.655 197.936L280.701 201.936C280.844 201.934 280.988 201.933 281.133 201.933V197.933ZM278.678 199.933V199.936H282.678V199.933H278.678ZM270.595 201.933H280.678V197.933H270.595V201.933ZM272.576 200.204C272.953 197.443 273.147 194.625 273.147 191.763H269.147C269.147 194.444 268.965 197.081 268.613 199.663L272.576 200.204ZM273.147 191.763C273.147 157.571 245.428 129.852 211.236 129.852V133.852C243.219 133.852 269.147 159.78 269.147 191.763H273.147ZM211.236 129.852C177.043 129.852 149.324 157.571 149.324 191.763H153.324C153.324 159.78 179.252 133.852 211.236 133.852V129.852ZM149.324 191.763C149.324 194.988 149.571 198.156 150.047 201.249L154 200.641C153.555 197.748 153.324 194.783 153.324 191.763H149.324ZM152.476 198.997C149.479 198.301 146.359 197.933 143.155 197.933V201.933C146.052 201.933 148.869 202.266 151.571 202.894L152.476 198.997ZM143.155 197.933C120.493 197.933 102.121 216.305 102.121 238.967H106.121C106.121 218.514 122.702 201.933 143.155 201.933V197.933ZM102.121 238.967C102.121 261.629 120.493 280 143.155 280V276C122.702 276 106.121 259.42 106.121 238.967H102.121ZM143.155 280C143.314 280 143.473 279.999 143.633 279.997L143.587 275.998C143.443 275.999 143.299 276 143.155 276V280ZM145.177 279.24L145.179 279.237L142.04 276.758L142.038 276.76L145.177 279.24ZM280.678 276H143.608V280H280.678V276ZM278.678 277.997V278H282.678V277.997H278.678Z" fill="url(#paint5_linear_3_311)"/>
</g>
</g>
<defs>
<filter id="filter0_f_3_311" x="35" y="15" width="241.241" height="241.241" filterUnits="userSpaceOnUse" color-interpolation-filters="sRGB">
<feFlood flood-opacity="0" result="BackgroundImageFix"/>
<feBlend mode="normal" in="SourceGraphic" in2="BackgroundImageFix" result="shape"/>
<feGaussianBlur stdDeviation="22" result="effect1_foregroundBlur_3_311"/>
</filter>
<filter id="filter1_f_3_311" x="-44.2779" y="205.777" width="326.945" height="136.023" filterUnits="userSpaceOnUse" color-interpolation-filters="sRGB">
<feFlood flood-opacity="0" result="BackgroundImageFix"/>
<feBlend mode="normal" in="SourceGraphic" in2="BackgroundImageFix" result="shape"/>
<feGaussianBlur stdDeviation="7" result="effect1_foregroundBlur_3_311"/>
</filter>
<filter id="filter2_d_3_311" x="33.1213" y="96.8523" width="316.045" height="246.148" filterUnits="userSpaceOnUse" color-interpolation-filters="sRGB">
<feFlood flood-opacity="0" result="BackgroundImageFix"/>
<feColorMatrix in="SourceAlpha" type="matrix" values="0 0 0 0 0 0 0 0 0 0 0 0 0 0 0 0 0 0 127 0" result="hardAlpha"/>
<feOffset dx="-21" dy="15"/>
<feGaussianBlur stdDeviation="25"/>
<feComposite in2="hardAlpha" operator="out"/>
<feColorMatrix type="matrix" values="0 0 0 0 0.113438 0 0 0 0 0.148981 0 0 0 0 0.275 0 0 0 0.25 0"/>
<feBlend mode="normal" in2="BackgroundImageFix" result="effect1_dropShadow_3_311"/>
<feBlend mode="normal" in="SourceGraphic" in2="effect1_dropShadow_3_311" result="shape"/>
</filter>
<linearGradient id="paint0_linear_3_311" x1="155.62" y1="64.0244" x2="155.62" y2="212.241" gradientUnits="userSpaceOnUse">
<stop stop-color="#FFE600"/>
<stop offset="1" stop-color="#FF7A00"/>
</linearGradient>
<linearGradient id="paint1_linear_3_311" x1="155.62" y1="64.0244" x2="155.62" y2="212.241" gradientUnits="userSpaceOnUse">
<stop stop-color="white"/>
<stop offset="1" stop-color="white" stop-opacity="0"/>
</linearGradient>
<linearGradient id="paint2_linear_3_311" x1="155.62" y1="64.0246" x2="155.62" y2="212.241" gradientUnits="userSpaceOnUse">
<stop stop-color="#FFD600"/>
<stop offset="1" stop-color="#FF7A00"/>
</linearGradient>
<linearGradient id="paint3_linear_3_311" x1="222.192" y1="136.248" x2="222.192" y2="294.514" gradientUnits="userSpaceOnUse">
<stop stop-color="white"/>
<stop offset="1" stop-color="white" stop-opacity="0"/>
</linearGradient>
<linearGradient id="paint4_linear_3_311" x1="212.144" y1="131.852" x2="212.144" y2="278" gradientUnits="userSpaceOnUse">
<stop stop-color="white"/>
<stop offset="1" stop-color="white" stop-opacity="0"/>
</linearGradient>
<linearGradient id="paint5_linear_3_311" x1="212.144" y1="131.852" x2="212.144" y2="278" gradientUnits="userSpaceOnUse">
<stop stop-color="white"/>
<stop offset="1" stop-color="white" stop-opacity="0"/>
</linearGradient>
</defs>
</svg>
