<svg width="400" height="400" viewBox="0 0 400 400" fill="none" xmlns="http://www.w3.org/2000/svg">
<g clip-path="url(#clip0_2_286)">
<mask id="mask0_2_286" style="mask-type:luminance" maskUnits="userSpaceOnUse" x="0" y="0" width="400" height="400">
<path d="M400 0H0V400H400V0Z" fill="white"/>
</mask>
<g mask="url(#mask0_2_286)">
<g filter="url(#filter0_dd_2_286)">
<path fill-rule="evenodd" clip-rule="evenodd" d="M245.339 58.0438C248.792 57.5323 250.853 61.606 248.943 64.528C236.004 84.326 233.781 110.324 245.373 132.859C260.668 162.595 294.856 176.27 325.736 166.765C329.075 165.737 332.421 168.849 330.97 172.028C323.671 188.012 311.149 201.75 294.311 210.411C254.481 230.899 205.583 215.218 185.096 175.388C164.608 135.558 180.289 86.661 220.119 66.173C228.254 61.989 236.767 59.3131 245.339 58.0438Z" fill="url(#paint0_linear_2_286)"/>
<mask id="mask1_2_286" style="mask-type:luminance" maskUnits="userSpaceOnUse" x="176" y="58" width="156" height="162">
<path fill-rule="evenodd" clip-rule="evenodd" d="M245.339 58.0438C248.792 57.5323 250.853 61.606 248.943 64.528C236.004 84.326 233.781 110.324 245.373 132.859C260.668 162.595 294.856 176.27 325.736 166.765C329.075 165.737 332.421 168.849 330.97 172.028C323.671 188.012 311.149 201.75 294.311 210.411C254.481 230.899 205.583 215.218 185.096 175.388C164.608 135.558 180.289 86.661 220.119 66.173C228.254 61.989 236.767 59.3131 245.339 58.0438Z" fill="url(#paint1_linear_2_286)"/>
</mask>
<g mask="url(#mask1_2_286)">
<path d="M247.151 131.945C235.902 110.075 238.056 84.8431 250.617 65.6231L247.269 63.4341C233.953 83.8101 231.66 110.574 243.594 133.774L247.151 131.945ZM325.148 164.853C295.178 174.078 261.995 160.803 247.151 131.945L243.594 133.774C259.34 164.386 294.534 178.461 326.324 168.676L325.148 164.853ZM329.15 171.197C322.032 186.787 309.821 200.184 293.396 208.633L295.226 212.19C312.477 203.316 325.311 189.236 332.789 172.858L329.15 171.197ZM293.396 208.633C254.548 228.615 206.857 213.321 186.874 174.473L183.317 176.303C204.31 217.115 254.413 233.183 295.226 212.19L293.396 208.633ZM186.874 174.473C166.892 135.625 182.186 87.9341 221.034 67.9521L219.204 64.3951C178.392 85.3871 162.325 135.49 183.317 176.303L186.874 174.473ZM221.034 67.9521C228.971 63.8691 237.274 61.26 245.632 60.0223L245.046 56.0654C236.26 57.3665 227.537 60.1088 219.204 64.3951L221.034 67.9521ZM326.324 168.676C327.247 168.392 328.168 168.679 328.752 169.25C329.306 169.791 329.478 170.478 329.15 171.197L332.789 172.858C333.912 170.399 333.137 167.941 331.546 166.388C329.986 164.864 327.564 164.109 325.148 164.853L326.324 168.676ZM250.617 65.6231C251.999 63.5081 251.945 60.9735 250.915 59.0529C249.864 57.0949 247.719 55.6696 245.046 56.0654L245.632 60.0223C246.412 59.9067 247.024 60.2626 247.39 60.9441C247.776 61.6631 247.797 62.6261 247.269 63.4341L250.617 65.6231Z" fill="url(#paint2_linear_2_286)"/>
</g>
</g>
<g filter="url(#filter1_d_2_286)">
<path fill-rule="evenodd" clip-rule="evenodd" d="M245.556 280.205C245.708 280.207 245.859 280.208 246.011 280.208C267.569 280.208 285.045 262.732 285.045 241.175C285.045 219.617 267.569 202.142 246.011 202.142C245.859 202.142 245.708 202.142 245.556 202.144V202.142H235.473C235.838 199.47 236.026 196.743 236.026 193.971C236.026 160.883 209.202 134.06 176.114 134.06C143.026 134.06 116.203 160.883 116.203 193.971C116.203 197.094 116.442 200.16 116.902 203.154C114.053 202.492 111.084 202.142 108.033 202.142C86.4758 202.142 69 219.617 69 241.175C69 262.732 86.4758 280.208 108.033 280.208C108.185 280.208 108.337 280.207 108.488 280.205L108.486 280.208H245.556V280.205Z" fill="url(#paint3_linear_2_286)"/>
<mask id="mask2_2_286" style="mask-type:luminance" maskUnits="userSpaceOnUse" x="69" y="134" width="217" height="147">
<path fill-rule="evenodd" clip-rule="evenodd" d="M245.556 280.205C245.708 280.207 245.859 280.208 246.011 280.208C267.569 280.208 285.045 262.732 285.045 241.175C285.045 219.617 267.569 202.142 246.011 202.142C245.859 202.142 245.708 202.142 245.556 202.144V202.142H235.473C235.838 199.47 236.026 196.743 236.026 193.971C236.026 160.883 209.202 134.06 176.114 134.06C143.026 134.06 116.203 160.883 116.203 193.971C116.203 197.094 116.442 200.16 116.902 203.154C114.053 202.492 111.084 202.142 108.033 202.142C86.4758 202.142 69 219.617 69 241.175C69 262.732 86.4758 280.208 108.033 280.208C108.185 280.208 108.337 280.207 108.488 280.205L108.486 280.208H245.556V280.205Z" fill="url(#paint4_linear_2_286)"/>
</mask>
<g mask="url(#mask2_2_286)">
<path d="M245.556 280.205L245.579 278.206C245.045 278.2 244.53 278.408 244.15 278.783C243.77 279.159 243.556 279.671 243.556 280.205H245.556ZM245.556 202.144H243.556C243.556 202.679 243.77 203.191 244.15 203.566C244.53 203.942 245.045 204.15 245.579 204.144L245.556 202.144ZM245.556 202.142H247.556C247.556 201.037 246.661 200.142 245.556 200.142V202.142ZM235.473 202.142L233.492 201.871C233.414 202.444 233.587 203.022 233.967 203.457C234.346 203.892 234.896 204.142 235.473 204.142V202.142ZM116.902 203.154L116.449 205.102C117.096 205.252 117.775 205.071 118.262 204.62C118.749 204.169 118.98 203.506 118.879 202.849L116.902 203.154ZM108.488 280.205L110.058 281.445C110.536 280.84 110.623 280.015 110.283 279.323C109.943 278.632 109.236 278.197 108.466 278.206L108.488 280.205ZM108.486 280.208L106.917 278.969C106.442 279.57 106.352 280.39 106.687 281.08C107.021 281.77 107.72 282.208 108.486 282.208V280.208ZM245.556 280.208V282.208C246.661 282.208 247.556 281.313 247.556 280.208H245.556ZM245.534 282.205C245.693 282.207 245.852 282.208 246.011 282.208V278.208C245.867 278.208 245.723 278.207 245.579 278.206L245.534 282.205ZM246.011 282.208C268.673 282.208 287.045 263.837 287.045 241.175H283.045C283.045 261.628 266.464 278.208 246.011 278.208V282.208ZM287.045 241.175C287.045 218.513 268.673 200.142 246.011 200.142V204.142C266.464 204.142 283.045 220.722 283.045 241.175H287.045ZM246.011 200.142C245.852 200.142 245.693 200.142 245.534 200.144L245.579 204.144C245.723 204.142 245.867 204.142 246.011 204.142V200.142ZM243.556 202.142V202.144H247.556V202.142H243.556ZM235.473 204.142H245.556V200.142H235.473V204.142ZM237.455 202.412C237.831 199.651 238.026 196.833 238.026 193.971H234.026C234.026 196.652 233.844 199.289 233.492 201.871L237.455 202.412ZM238.026 193.971C238.026 159.779 210.307 132.06 176.114 132.06V136.06C208.098 136.06 234.026 161.988 234.026 193.971H238.026ZM176.114 132.06C141.922 132.06 114.203 159.779 114.203 193.971H118.203C118.203 161.988 144.131 136.06 176.114 136.06V132.06ZM114.203 193.971C114.203 197.196 114.449 200.364 114.925 203.458L118.879 202.849C118.434 199.956 118.203 196.992 118.203 193.971H114.203ZM117.355 201.205C114.358 200.509 111.237 200.142 108.033 200.142V204.142C110.93 204.142 113.748 204.474 116.449 205.102L117.355 201.205ZM108.033 200.142C85.3712 200.142 67 218.513 67 241.175H71C71 220.722 87.5804 204.142 108.033 204.142V200.142ZM67 241.175C67 263.837 85.3712 282.208 108.033 282.208V278.208C87.5804 278.208 71 261.628 71 241.175H67ZM108.033 282.208C108.193 282.208 108.352 282.207 108.511 282.205L108.466 278.206C108.322 278.207 108.178 278.208 108.033 278.208V282.208ZM110.056 281.448L110.058 281.445L106.919 278.966L106.917 278.969L110.056 281.448ZM245.556 278.208H108.486V282.208H245.556V278.208ZM243.556 280.205V280.208H247.556V280.205H243.556Z" fill="url(#paint5_linear_2_286)"/>
</g>
</g>
<path opacity="0.9" d="M112.814 311.751C112.814 311.751 114.426 311.751 117.216 311.565C120.006 311.441 123.911 311.317 128.561 311.007C133.211 310.697 138.543 310.263 144.06 309.395C146.85 308.961 149.64 308.403 152.43 307.783C155.22 307.101 158.01 306.233 160.675 305.242L165.449 303.754C167.247 303.382 169.107 303.01 170.843 302.762C174.253 302.39 177.6 302.452 180.762 302.762C187.086 303.444 192.728 305.304 197.253 307.349C201.779 309.457 205.251 311.689 207.545 313.425C209.901 315.161 211.017 316.401 211.017 316.401C211.017 316.401 209.467 316.029 206.677 315.471C203.949 314.913 200.105 314.107 195.579 313.487C191.054 312.867 185.784 312.371 180.39 312.495C179.026 312.495 177.662 312.681 176.299 312.743C174.935 312.867 173.571 313.177 172.207 313.301C170.905 313.549 169.727 313.921 168.425 314.169L164.147 315.595C162.535 316.091 160.861 316.711 159.249 317.145C157.576 317.517 155.964 317.951 154.352 318.199C151.066 318.757 147.842 319.067 144.742 319.067C138.543 319.191 132.839 318.385 128.065 317.269C123.291 316.153 119.448 314.789 116.844 313.673C114.24 312.557 112.814 311.689 112.814 311.689V311.751Z" fill="white"/>
<path opacity="0.9" d="M268.302 336.426C268.302 336.426 266.69 336.302 263.9 336.116C261.11 335.868 257.204 335.62 252.554 335.124C247.967 334.628 242.635 334.008 237.117 332.954C234.389 332.396 231.6 331.776 228.81 330.97C226.02 330.164 223.292 329.234 220.626 328.118L215.914 326.444C214.178 326.01 212.319 325.576 210.583 325.266C207.173 324.77 203.825 324.708 200.663 324.894C194.278 325.328 188.636 327.002 184.048 328.862C179.46 330.784 175.865 332.892 173.509 334.566C171.091 336.24 169.913 337.418 169.913 337.418C169.913 337.418 171.525 337.108 174.253 336.612C176.981 336.178 180.886 335.496 185.474 335.062C190.062 334.628 195.27 334.318 200.725 334.628C202.089 334.69 203.453 334.938 204.817 335.062C206.181 335.248 207.545 335.558 208.909 335.744C210.211 336.054 211.389 336.426 212.629 336.736L216.844 338.286C218.456 338.844 220.068 339.526 221.68 340.022C223.292 340.456 224.966 340.952 226.578 341.262C229.802 341.943 233.025 342.315 236.125 342.501C242.325 342.811 248.029 342.253 252.864 341.386C257.638 340.456 261.544 339.216 264.21 338.224C266.876 337.232 268.364 336.426 268.364 336.426H268.302Z" fill="white"/>
</g>
</g>
<defs>
<filter id="filter0_dd_2_286" x="105.097" y="20" width="264.221" height="264.41" filterUnits="userSpaceOnUse" color-interpolation-filters="sRGB">
<feFlood flood-opacity="0" result="BackgroundImageFix"/>
<feColorMatrix in="SourceAlpha" type="matrix" values="0 0 0 0 0 0 0 0 0 0 0 0 0 0 0 0 0 0 127 0" result="hardAlpha"/>
<feOffset dx="-21" dy="15"/>
<feGaussianBlur stdDeviation="25"/>
<feComposite in2="hardAlpha" operator="out"/>
<feColorMatrix type="matrix" values="0 0 0 0 0.113438 0 0 0 0 0.148981 0 0 0 0 0.275 0 0 0 0.25 0"/>
<feBlend mode="normal" in2="BackgroundImageFix" result="effect1_dropShadow_2_286"/>
<feColorMatrix in="SourceAlpha" type="matrix" values="0 0 0 0 0 0 0 0 0 0 0 0 0 0 0 0 0 0 127 0" result="hardAlpha"/>
<feOffset/>
<feGaussianBlur stdDeviation="19"/>
<feComposite in2="hardAlpha" operator="out"/>
<feColorMatrix type="matrix" values="0 0 0 0 0.619608 0 0 0 0 0.423529 0 0 0 0 1 0 0 0 0.4 0"/>
<feBlend mode="normal" in2="effect1_dropShadow_2_286" result="effect2_dropShadow_2_286"/>
<feBlend mode="normal" in="SourceGraphic" in2="effect2_dropShadow_2_286" result="shape"/>
</filter>
<filter id="filter1_d_2_286" x="-2" y="99.0601" width="316.045" height="246.148" filterUnits="userSpaceOnUse" color-interpolation-filters="sRGB">
<feFlood flood-opacity="0" result="BackgroundImageFix"/>
<feColorMatrix in="SourceAlpha" type="matrix" values="0 0 0 0 0 0 0 0 0 0 0 0 0 0 0 0 0 0 127 0" result="hardAlpha"/>
<feOffset dx="-21" dy="15"/>
<feGaussianBlur stdDeviation="25"/>
<feComposite in2="hardAlpha" operator="out"/>
<feColorMatrix type="matrix" values="0 0 0 0 0.113438 0 0 0 0 0.148981 0 0 0 0 0.275 0 0 0 0.25 0"/>
<feBlend mode="normal" in2="BackgroundImageFix" result="effect1_dropShadow_2_286"/>
<feBlend mode="normal" in="SourceGraphic" in2="effect1_dropShadow_2_286" result="shape"/>
</filter>
<linearGradient id="paint0_linear_2_286" x1="204.961" y1="75.577" x2="279.152" y2="219.815" gradientUnits="userSpaceOnUse">
<stop offset="0.0001" stop-color="#D4C0FF"/>
<stop offset="1" stop-color="#7E2FFF"/>
</linearGradient>
<linearGradient id="paint1_linear_2_286" x1="213.038" y1="-3.73475" x2="259.183" y2="185.567" gradientUnits="userSpaceOnUse">
<stop stop-color="white"/>
<stop offset="1" stop-color="white" stop-opacity="0"/>
</linearGradient>
<linearGradient id="paint2_linear_2_286" x1="213.038" y1="-3.73474" x2="259.183" y2="185.567" gradientUnits="userSpaceOnUse">
<stop stop-color="white"/>
<stop offset="1" stop-color="white" stop-opacity="0"/>
</linearGradient>
<linearGradient id="paint3_linear_2_286" x1="187.071" y1="138.456" x2="187.071" y2="296.722" gradientUnits="userSpaceOnUse">
<stop stop-color="white"/>
<stop offset="1" stop-color="white" stop-opacity="0"/>
</linearGradient>
<linearGradient id="paint4_linear_2_286" x1="177.022" y1="134.06" x2="177.022" y2="280.208" gradientUnits="userSpaceOnUse">
<stop stop-color="white"/>
<stop offset="1" stop-color="white" stop-opacity="0"/>
</linearGradient>
<linearGradient id="paint5_linear_2_286" x1="177.022" y1="134.06" x2="177.022" y2="280.208" gradientUnits="userSpaceOnUse">
<stop stop-color="white"/>
<stop offset="1" stop-color="white" stop-opacity="0"/>
</linearGradient>
<clipPath id="clip0_2_286">
<rect width="400" height="400" fill="white"/>
</clipPath>
</defs>
</svg>
