<svg width="423" height="400" viewBox="0 0 423 400" fill="none" xmlns="http://www.w3.org/2000/svg">
<g filter="url(#filter0_f_2_2)">
<circle cx="244" cy="151" r="61" fill="#FFC701" fill-opacity="0.5"/>
</g>
<circle cx="244" cy="153" r="58" fill="url(#paint0_linear_2_2)" stroke="url(#paint1_linear_2_2)" stroke-width="2"/>
<mask id="mask0_2_2" style="mask-type:alpha" maskUnits="userSpaceOnUse" x="185" y="127" width="118" height="85">
<path d="M303 153C303 185.585 276.585 212 244 212C211.415 212 185 185.585 185 153C185 120.415 206.915 128 239.5 128C272.085 128 303 120.415 303 153Z" fill="url(#paint2_linear_2_2)"/>
</mask>
<g mask="url(#mask0_2_2)">
<g filter="url(#filter1_f_2_2)">
<path fill-rule="evenodd" clip-rule="evenodd" d="M290.5 303.997C290.666 303.999 290.833 304 291 304C314.748 304 334 284.748 334 261C334 237.252 314.748 218 291 218C290.833 218 290.666 218.001 290.5 218.003V218H263.087C263.688 214.423 264 210.748 264 207C264 170.549 234.451 141 198 141C161.549 141 132 170.549 132 207C132 210.894 132.337 214.709 132.984 218.418C112.084 221.343 96 239.293 96 261C96 284.748 115.252 304 139 304C139.168 304 139.335 303.999 139.502 303.997L139.5 304H290.5V303.997Z" fill="#E18700"/>
</g>
</g>
<g filter="url(#filter2_bd_2_2)">
<mask id="path-5-inside-1_2_2" fill="white">
<path fill-rule="evenodd" clip-rule="evenodd" d="M265.5 308.997C265.666 308.999 265.833 309 266 309C289.748 309 309 289.748 309 266C309 242.252 289.748 223 266 223C265.833 223 265.666 223.001 265.5 223.003V223H254.391C254.793 220.057 255 217.053 255 214C255 177.549 225.451 148 189 148C152.549 148 123 177.549 123 214C123 217.439 123.263 220.817 123.77 224.115C120.631 223.386 117.361 223 114 223C90.2518 223 71 242.252 71 266C71 289.748 90.2518 309 114 309C114.168 309 114.335 308.999 114.502 308.997L114.5 309H265.5V308.997Z"/>
</mask>
<path fill-rule="evenodd" clip-rule="evenodd" d="M265.5 308.997C265.666 308.999 265.833 309 266 309C289.748 309 309 289.748 309 266C309 242.252 289.748 223 266 223C265.833 223 265.666 223.001 265.5 223.003V223H254.391C254.793 220.057 255 217.053 255 214C255 177.549 225.451 148 189 148C152.549 148 123 177.549 123 214C123 217.439 123.263 220.817 123.77 224.115C120.631 223.386 117.361 223 114 223C90.2518 223 71 242.252 71 266C71 289.748 90.2518 309 114 309C114.168 309 114.335 308.999 114.502 308.997L114.5 309H265.5V308.997Z" fill="url(#paint3_linear_2_2)" shape-rendering="crispEdges"/>
<path d="M265.5 308.997L265.523 306.997C264.988 306.991 264.474 307.199 264.094 307.575C263.714 307.951 263.5 308.463 263.5 308.997H265.5ZM265.5 223.003H263.5C263.5 223.537 263.714 224.049 264.094 224.425C264.474 224.801 264.988 225.009 265.523 225.003L265.5 223.003ZM265.5 223H267.5C267.5 221.895 266.605 221 265.5 221V223ZM254.391 223L252.41 222.73C252.332 223.302 252.505 223.88 252.885 224.315C253.265 224.75 253.814 225 254.391 225V223ZM123.77 224.115L123.318 226.063C123.964 226.213 124.643 226.033 125.13 225.582C125.617 225.13 125.848 224.467 125.747 223.811L123.77 224.115ZM114.502 308.997L116.072 310.237C116.549 309.632 116.637 308.807 116.297 308.115C115.957 307.423 115.25 306.988 114.479 306.997L114.502 308.997ZM114.5 309L112.931 307.76C112.455 308.362 112.366 309.182 112.7 309.872C113.034 310.562 113.733 311 114.5 311V309ZM265.5 309V311C266.605 311 267.5 310.105 267.5 309H265.5ZM265.477 310.997C265.651 310.999 265.825 311 266 311V307C265.841 307 265.682 306.999 265.523 306.997L265.477 310.997ZM266 311C290.853 311 311 290.853 311 266H307C307 288.644 288.644 307 266 307V311ZM311 266C311 241.147 290.853 221 266 221V225C288.644 225 307 243.356 307 266H311ZM266 221C265.826 221 265.651 221.001 265.477 221.003L265.523 225.003C265.682 225.001 265.841 225 266 225V221ZM263.5 223V223.003H267.5V223H263.5ZM254.391 225H265.5V221H254.391V225ZM256.373 223.27C256.787 220.238 257 217.143 257 214H253C253 216.962 252.799 219.876 252.41 222.73L256.373 223.27ZM257 214C257 176.445 226.555 146 189 146V150C224.346 150 253 178.654 253 214H257ZM189 146C151.445 146 121 176.445 121 214H125C125 178.654 153.654 150 189 150V146ZM121 214C121 217.542 121.271 221.021 121.793 224.419L125.747 223.811C125.255 220.614 125 217.337 125 214H121ZM124.223 222.167C120.937 221.403 117.514 221 114 221V225C117.207 225 120.326 225.368 123.318 226.063L124.223 222.167ZM114 221C89.1472 221 69 241.147 69 266H73C73 243.356 91.3563 225 114 225V221ZM69 266C69 290.853 89.1472 311 114 311V307C91.3563 307 73 288.644 73 266H69ZM114 311C114.175 311 114.35 310.999 114.525 310.997L114.479 306.997C114.32 306.999 114.16 307 114 307V311ZM116.069 310.24L116.072 310.237L112.933 307.757L112.931 307.76L116.069 310.24ZM265.5 307H114.5V311H265.5V307ZM263.5 308.997V309H267.5V308.997H263.5Z" fill="url(#paint4_linear_2_2)" mask="url(#path-5-inside-1_2_2)"/>
</g>
<g filter="url(#filter3_bd_2_2)">
<mask id="path-7-inside-2_2_2" fill="white">
<path fill-rule="evenodd" clip-rule="evenodd" d="M343.563 264.351C343.683 264.352 343.804 264.353 343.924 264.353C361.087 264.353 375 250.44 375 233.277C375 216.115 361.087 202.202 343.924 202.202C343.804 202.202 343.683 202.202 343.563 202.204V202.202H335.535C335.825 200.075 335.975 197.904 335.975 195.697C335.975 169.355 314.62 148 288.277 148C261.935 148 240.58 169.355 240.58 195.697C240.58 198.183 240.77 200.624 241.136 203.007C238.868 202.48 236.504 202.202 234.076 202.202C216.913 202.202 203 216.115 203 233.277C203 250.44 216.913 264.353 234.076 264.353C234.197 264.353 234.318 264.352 234.439 264.351L234.437 264.353H343.563V264.351Z"/>
</mask>
<path fill-rule="evenodd" clip-rule="evenodd" d="M343.563 264.351C343.683 264.352 343.804 264.353 343.924 264.353C361.087 264.353 375 250.44 375 233.277C375 216.115 361.087 202.202 343.924 202.202C343.804 202.202 343.683 202.202 343.563 202.204V202.202H335.535C335.825 200.075 335.975 197.904 335.975 195.697C335.975 169.355 314.62 148 288.277 148C261.935 148 240.58 169.355 240.58 195.697C240.58 198.183 240.77 200.624 241.136 203.007C238.868 202.48 236.504 202.202 234.076 202.202C216.913 202.202 203 216.115 203 233.277C203 250.44 216.913 264.353 234.076 264.353C234.197 264.353 234.318 264.352 234.439 264.351L234.437 264.353H343.563V264.351Z" fill="url(#paint5_linear_2_2)" shape-rendering="crispEdges"/>
<path d="M343.563 264.351L343.586 262.351C343.052 262.345 342.537 262.553 342.157 262.929C341.777 263.304 341.563 263.816 341.563 264.351H343.563ZM343.563 202.204H341.563C341.563 202.738 341.777 203.25 342.157 203.626C342.537 204.002 343.051 204.21 343.586 204.204L343.563 202.204ZM343.563 202.202H345.563C345.563 201.097 344.668 200.202 343.563 200.202V202.202ZM335.535 202.202L333.553 201.931C333.475 202.504 333.649 203.082 334.028 203.517C334.408 203.952 334.957 204.202 335.535 204.202V202.202ZM241.136 203.007L240.684 204.955C241.33 205.106 242.009 204.925 242.496 204.474C242.983 204.023 243.214 203.359 243.113 202.703L241.136 203.007ZM234.439 264.351L236.008 265.59C236.486 264.985 236.573 264.16 236.233 263.468C235.893 262.777 235.186 262.342 234.416 262.351L234.439 264.351ZM234.437 264.353L232.867 263.114C232.392 263.715 232.303 264.535 232.637 265.225C232.971 265.915 233.67 266.353 234.437 266.353V264.353ZM343.563 264.353V266.353C344.668 266.353 345.563 265.458 345.563 264.353H343.563ZM343.54 266.351C343.668 266.352 343.796 266.353 343.924 266.353V262.353C343.811 262.353 343.699 262.352 343.586 262.351L343.54 266.351ZM343.924 266.353C362.192 266.353 377 251.544 377 233.277H373C373 249.335 359.982 262.353 343.924 262.353V266.353ZM377 233.277C377 215.01 362.192 200.202 343.924 200.202V204.202C359.982 204.202 373 217.219 373 233.277H377ZM343.924 200.202C343.796 200.202 343.668 200.202 343.54 200.204L343.586 204.204C343.699 204.202 343.811 204.202 343.924 204.202V200.202ZM341.563 202.202V202.204H345.563V202.202H341.563ZM335.535 204.202H343.563V200.202H335.535V204.202ZM337.517 202.472C337.819 200.256 337.975 197.994 337.975 195.697H333.975C333.975 197.813 333.831 199.894 333.553 201.931L337.517 202.472ZM337.975 195.697C337.975 168.25 315.724 146 288.277 146V150C313.515 150 333.975 170.459 333.975 195.697H337.975ZM288.277 146C260.83 146 238.58 168.25 238.58 195.697H242.58C242.58 170.459 263.039 150 288.277 150V146ZM238.58 195.697C238.58 198.285 238.778 200.828 239.16 203.311L243.113 202.703C242.762 200.421 242.58 198.081 242.58 195.697H238.58ZM241.589 201.059C239.173 200.498 236.658 200.202 234.076 200.202V204.202C236.351 204.202 238.563 204.463 240.684 204.955L241.589 201.059ZM234.076 200.202C215.808 200.202 201 215.01 201 233.277H205C205 217.219 218.018 204.202 234.076 204.202V200.202ZM201 233.277C201 251.544 215.808 266.353 234.076 266.353V262.353C218.018 262.353 205 249.335 205 233.277H201ZM234.076 266.353C234.204 266.353 234.333 266.352 234.461 266.351L234.416 262.351C234.303 262.352 234.189 262.353 234.076 262.353V266.353ZM236.007 265.592L236.008 265.59L232.869 263.112L232.867 263.114L236.007 265.592ZM343.563 262.353H234.437V266.353H343.563V262.353ZM341.563 264.351V264.353H345.563V264.351H341.563Z" fill="url(#paint6_linear_2_2)" mask="url(#path-7-inside-2_2_2)"/>
</g>
<defs>
<filter id="filter0_f_2_2" x="139" y="46" width="210" height="210" filterUnits="userSpaceOnUse" color-interpolation-filters="sRGB">
<feFlood flood-opacity="0" result="BackgroundImageFix"/>
<feBlend mode="normal" in="SourceGraphic" in2="BackgroundImageFix" result="shape"/>
<feGaussianBlur stdDeviation="22" result="effect1_foregroundBlur_2_2"/>
</filter>
<filter id="filter1_f_2_2" x="82" y="127" width="266" height="191" filterUnits="userSpaceOnUse" color-interpolation-filters="sRGB">
<feFlood flood-opacity="0" result="BackgroundImageFix"/>
<feBlend mode="normal" in="SourceGraphic" in2="BackgroundImageFix" result="shape"/>
<feGaussianBlur stdDeviation="7" result="effect1_foregroundBlur_2_2"/>
</filter>
<filter id="filter2_bd_2_2" x="0" y="113" width="338" height="261" filterUnits="userSpaceOnUse" color-interpolation-filters="sRGB">
<feFlood flood-opacity="0" result="BackgroundImageFix"/>
<feGaussianBlur in="BackgroundImageFix" stdDeviation="7"/>
<feComposite in2="SourceAlpha" operator="in" result="effect1_backgroundBlur_2_2"/>
<feColorMatrix in="SourceAlpha" type="matrix" values="0 0 0 0 0 0 0 0 0 0 0 0 0 0 0 0 0 0 127 0" result="hardAlpha"/>
<feOffset dx="-21" dy="15"/>
<feGaussianBlur stdDeviation="25"/>
<feComposite in2="hardAlpha" operator="out"/>
<feColorMatrix type="matrix" values="0 0 0 0 0.113725 0 0 0 0 0.14902 0 0 0 0 0.27451 0 0 0 0.25 0"/>
<feBlend mode="normal" in2="effect1_backgroundBlur_2_2" result="effect2_dropShadow_2_2"/>
<feBlend mode="normal" in="SourceGraphic" in2="effect2_dropShadow_2_2" result="shape"/>
</filter>
<filter id="filter3_bd_2_2" x="132" y="113" width="272" height="216.353" filterUnits="userSpaceOnUse" color-interpolation-filters="sRGB">
<feFlood flood-opacity="0" result="BackgroundImageFix"/>
<feGaussianBlur in="BackgroundImageFix" stdDeviation="7"/>
<feComposite in2="SourceAlpha" operator="in" result="effect1_backgroundBlur_2_2"/>
<feColorMatrix in="SourceAlpha" type="matrix" values="0 0 0 0 0 0 0 0 0 0 0 0 0 0 0 0 0 0 127 0" result="hardAlpha"/>
<feOffset dx="-21" dy="15"/>
<feGaussianBlur stdDeviation="25"/>
<feComposite in2="hardAlpha" operator="out"/>
<feColorMatrix type="matrix" values="0 0 0 0 0.113438 0 0 0 0 0.148981 0 0 0 0 0.275 0 0 0 0.25 0"/>
<feBlend mode="normal" in2="effect1_backgroundBlur_2_2" result="effect2_dropShadow_2_2"/>
<feBlend mode="normal" in="SourceGraphic" in2="effect2_dropShadow_2_2" result="shape"/>
</filter>
<linearGradient id="paint0_linear_2_2" x1="244" y1="94" x2="244" y2="212" gradientUnits="userSpaceOnUse">
<stop stop-color="#FFE600"/>
<stop offset="1" stop-color="#FF7A00"/>
</linearGradient>
<linearGradient id="paint1_linear_2_2" x1="244" y1="94" x2="244" y2="212" gradientUnits="userSpaceOnUse">
<stop stop-color="white"/>
<stop offset="1" stop-color="white" stop-opacity="0"/>
</linearGradient>
<linearGradient id="paint2_linear_2_2" x1="244" y1="94" x2="244" y2="212" gradientUnits="userSpaceOnUse">
<stop stop-color="#FFD600"/>
<stop offset="1" stop-color="#FF7A00"/>
</linearGradient>
<linearGradient id="paint3_linear_2_2" x1="190" y1="96.5" x2="190" y2="331.5" gradientUnits="userSpaceOnUse">
<stop stop-color="white"/>
<stop offset="1" stop-color="white" stop-opacity="0"/>
</linearGradient>
<linearGradient id="paint4_linear_2_2" x1="190" y1="148" x2="190" y2="309" gradientUnits="userSpaceOnUse">
<stop stop-color="white"/>
<stop offset="1" stop-color="white" stop-opacity="0"/>
</linearGradient>
<linearGradient id="paint5_linear_2_2" x1="297" y1="151.5" x2="297" y2="277.5" gradientUnits="userSpaceOnUse">
<stop stop-color="white"/>
<stop offset="1" stop-color="white" stop-opacity="0"/>
</linearGradient>
<linearGradient id="paint6_linear_2_2" x1="289" y1="148" x2="289" y2="264.353" gradientUnits="userSpaceOnUse">
<stop stop-color="white"/>
<stop offset="1" stop-color="white" stop-opacity="0"/>
</linearGradient>
</defs>
</svg>
