<svg xmlns="http://www.w3.org/2000/svg" xmlns:xlink="http://www.w3.org/1999/xlink" viewBox="0,0,256,219.42188" width="48px" height="48px" fill-rule="nonzero"><g fill="#1c2b4c" fill-rule="nonzero" stroke="none" stroke-width="1" stroke-linecap="butt" stroke-linejoin="miter" stroke-miterlimit="10" stroke-dasharray="" stroke-dashoffset="0" font-family="none" font-weight="none" font-size="none" text-anchor="none" style="mix-blend-mode: normal"><g transform="scale(6.09524,6.09524)"><g><path d="M7.5,15h15.973v0h0.027c3.82296,0.00306 7.03642,-2.86986 7.45985,-6.6693c0.42343,-3.79944 -2.07869,-7.30933 -5.80852,-8.148c-3.72984,-0.83867 -7.49359,1.26231 -8.73732,4.8773c-0.1435,0.45576 -0.06003,0.95268 0.22451,1.33654c0.28453,0.38386 0.7357,0.60823 1.21349,0.60346h0.016c0.61817,0.01267 1.17683,-0.36672 1.393,-0.946c0.74118,-2.16873 2.99593,-3.43199 5.23253,-2.9316c2.2366,0.50039 3.73808,2.60402 3.48444,4.88183c-0.25364,2.27781 -2.18108,3.99963 -4.47297,3.99577h-16.005c-0.82843,0 -1.5,0.67157 -1.5,1.5c0,0.82843 0.67157,1.5 1.5,1.5z"></path><path d="M13.962,24.075c-0.32193,-0.04993 -0.64722,-0.07501 -0.973,-0.075h-11.489c-0.82843,0 -1.5,0.67157 -1.5,1.5c0,0.82843 0.67157,1.5 1.5,1.5h11.381c1.46019,-0.02659 2.73844,0.97563 3.061,2.4c0.29104,1.40635 -0.45786,2.82119 -1.78448,3.37128c-1.32662,0.55009 -2.85697,0.08036 -3.64652,-1.11928c-0.24334,-0.39471 -0.66947,-0.63993 -1.133,-0.652h-0.187c-0.52294,-0.00494 -1.00825,0.27133 -1.27096,0.72352c-0.26271,0.45219 -0.26234,1.01063 0.00096,1.46248c1.46857,2.34153 4.34671,3.37688 6.97036,2.50745c2.62365,-0.86943 4.31391,-3.41868 4.09353,-6.17384c-0.22039,-2.75516 -2.29439,-5.0033 -5.02289,-5.44461z"></path><path d="M41.944,25.511c-0.46273,-3.83924 -3.44751,-6.88843 -7.276,-7.433c-0.55323,-0.06893 -1.11181,-0.08434 -1.668,-0.046v-0.032h-28.5c-0.82843,0 -1.5,0.67157 -1.5,1.5c0,0.82843 0.67157,1.5 1.5,1.5h28.967v0h0.033c2.72215,-0.0032 5.03712,1.98538 5.44452,4.67687c0.4074,2.69149 -1.21536,5.2761 -3.81651,6.07866c-2.60115,0.80256 -5.39808,-0.41839 -6.57801,-2.87153c-0.24632,-0.53245 -0.77639,-0.87624 -1.363,-0.884h-0.005c-0.50395,-0.0043 -0.97597,0.24627 -1.25478,0.66609c-0.27881,0.41982 -0.32667,0.95208 -0.12722,1.41491c1.7625,3.77898 6.00596,5.72148 10.01814,4.58593c4.01218,-1.13555 6.60823,-5.01379 6.12886,-9.15593z"></path></g></g></g></svg>